<svg width="138" height="69" viewBox="0 0 138 69" fill="none" xmlns="http://www.w3.org/2000/svg">
<path d="M98.1025 53.5167C98.9404 53.5167 99.4361 52.8819 99.4361 51.8894C99.4361 50.8605 98.904 50.2621 98.1202 50.2621C97.6719 50.2621 97.3606 50.4608 97.1277 50.7766H97.1166V49.1504H96.6309V53.4262H97.1166V53.0199H97.1277C97.3794 53.3666 97.6841 53.5167 98.1025 53.5167ZM98.0672 53.1093C97.4092 53.1093 97.0857 52.5894 97.0857 51.8949C97.0857 51.2259 97.397 50.675 98.0727 50.675C98.6589 50.675 98.9404 51.2016 98.9404 51.8949C98.9404 52.5949 98.6589 53.1093 98.0672 53.1093ZM100.256 54.4496C100.633 54.4496 100.872 54.3171 101.123 53.6768L102.446 50.3339H101.931L101.225 52.2604C101.13 52.5176 101.021 52.8642 101.021 52.8642H101.01C101.01 52.8642 100.896 52.5176 100.801 52.2604L100.071 50.3339H99.5443L100.752 53.3368L100.633 53.6415C100.514 53.9406 100.376 54.019 100.172 54.019C100.059 54.0248 99.9459 54.002 99.8435 53.9528H99.8192V54.3833C99.9517 54.4374 100.071 54.4496 100.256 54.4496ZM103.685 53.4262H104.499V49.1504H103.685V53.4262ZM106.488 53.5167C107.439 53.5167 108.091 52.8102 108.091 51.8949C108.091 50.9797 107.44 50.2743 106.488 50.2743C105.538 50.2743 104.885 50.9808 104.885 51.8949C104.885 52.8113 105.537 53.5167 106.488 53.5167ZM106.488 52.8941C105.986 52.8941 105.711 52.4933 105.711 51.8949C105.711 51.2977 105.986 50.8903 106.488 50.8903C106.985 50.8903 107.266 51.2977 107.266 51.8949C107.266 52.4933 106.985 52.8941 106.488 52.8941ZM109.821 54.4728C110.276 54.4728 110.67 54.3657 110.928 54.1261C111.155 53.9164 111.293 53.6238 111.293 53.1932V50.3582H110.509V50.6816H110.497C110.312 50.4244 110.031 50.2743 109.647 50.2743C108.871 50.2743 108.32 50.8605 108.32 51.7757C108.32 52.7031 108.99 53.2407 109.672 53.2407C110.061 53.2407 110.294 53.0862 110.473 52.8819H110.492V53.2175C110.492 53.6359 110.271 53.8578 109.809 53.8578C109.433 53.8578 109.26 53.7077 109.193 53.5156H108.386C108.469 54.114 108.984 54.4728 109.821 54.4728ZM109.81 52.5893C109.391 52.5893 109.115 52.2846 109.115 51.7636C109.115 51.2491 109.391 50.9267 109.804 50.9267C110.294 50.9267 110.534 51.3087 110.534 51.758C110.534 52.2129 110.324 52.5893 109.809 52.5893H109.81ZM113.27 53.5167C114.221 53.5167 114.873 52.8102 114.873 51.8949C114.873 50.9797 114.221 50.2743 113.27 50.2743C112.319 50.2743 111.667 50.9808 111.667 51.8949C111.667 52.8113 112.319 53.5167 113.27 53.5167ZM113.27 52.8941C112.768 52.8941 112.492 52.4933 112.492 51.8949C112.492 51.2977 112.768 50.8903 113.27 50.8903C113.766 50.8903 114.048 51.2977 114.048 51.8949C114.048 52.4933 113.766 52.8941 113.27 52.8941ZM115.251 53.4262H116.065V50.3582H115.251V53.4262ZM115.251 49.8801H116.065V49.1504H115.251V49.8801ZM116.589 54.4308H117.403V53.0806H117.414C117.588 53.3445 117.869 53.5178 118.299 53.5178C119.088 53.5178 119.627 52.8885 119.627 51.896C119.627 50.9389 119.107 50.2754 118.294 50.2754C118.116 50.2725 117.941 50.3136 117.783 50.3951C117.626 50.4766 117.491 50.5959 117.39 50.7424H117.373V50.3593H116.589V54.433V54.4308ZM118.126 52.8411C117.641 52.8411 117.384 52.4756 117.384 51.9192C117.384 51.3694 117.588 50.9322 118.096 50.9322C118.598 50.9322 118.801 51.3385 118.801 51.9192C118.801 52.4999 118.539 52.8411 118.126 52.8411ZM121.25 53.5167C122.015 53.5167 122.542 53.1458 122.542 52.5297C122.542 51.8121 121.973 51.6686 121.459 51.5604C121.023 51.471 120.616 51.4467 120.616 51.184C120.616 50.9632 120.825 50.8417 121.142 50.8417C121.49 50.8417 121.698 50.9632 121.735 51.291H122.47C122.41 50.675 121.962 50.2754 121.154 50.2754C120.454 50.2754 119.904 50.5911 119.904 51.2557C119.904 51.9247 120.442 52.0749 120.993 52.1831C121.411 52.2659 121.8 52.2957 121.8 52.5893C121.8 52.8046 121.597 52.9426 121.238 52.9426C120.874 52.9426 120.622 52.787 120.568 52.4337H119.815C119.862 53.085 120.359 53.5167 121.25 53.5167ZM125.631 53.4262V50.3582H124.817V52.129C124.817 52.5353 124.583 52.8223 124.201 52.8223C123.854 52.8223 123.692 52.6247 123.692 52.2659V50.3582H122.885V52.4039C122.885 53.074 123.268 53.5101 123.949 53.5101C124.38 53.5101 124.619 53.3489 124.829 53.0685H124.847V53.4262H125.631ZM126.156 53.4262H126.97V51.6454C126.97 51.2381 127.191 50.9753 127.52 50.9753C127.819 50.9753 127.992 51.1553 127.992 51.5019V53.4273H128.806V51.6454C128.806 51.2381 129.016 50.9753 129.357 50.9753C129.656 50.9753 129.829 51.1553 129.829 51.5019V53.4273H130.643V51.3639C130.643 50.6938 130.277 50.2754 129.632 50.2754C129.243 50.2754 128.92 50.4785 128.711 50.8141H128.699C128.625 50.6512 128.505 50.5133 128.354 50.4176C128.203 50.3219 128.027 50.2724 127.849 50.2754C127.669 50.2709 127.492 50.3146 127.335 50.402C127.179 50.4894 127.048 50.6172 126.958 50.7722H126.94V50.3593H126.156V53.4284V53.4262Z" fill="#E7EBE9"/>
<path d="M130.803 14.7921C130.803 13.486 131.862 12.4262 133.168 12.4262H134.745C135.373 12.4262 135.975 12.6755 136.418 13.1192C136.862 13.5628 137.111 14.1646 137.111 14.7921C137.111 15.4195 136.862 16.0213 136.418 16.465C135.975 16.9087 135.373 17.158 134.745 17.158H133.168C132.857 17.158 132.55 17.0967 132.263 16.9778C131.976 16.8589 131.715 16.6846 131.495 16.4649C131.276 16.2452 131.102 15.9844 130.983 15.6974C130.864 15.4103 130.803 15.1027 130.803 14.7921ZM64.573 28.1957C64.573 36.9041 57.514 43.9642 48.8046 43.9642C40.0962 43.9642 33.0361 36.9041 33.0361 28.1957C33.0361 19.4852 40.0962 12.4273 48.8046 12.4273C57.514 12.4273 64.573 19.4852 64.573 28.1957ZM29.9604 28.1174C30.8326 28.1174 31.5457 28.8239 31.4585 29.6917C31.1605 32.6612 30.0258 35.4852 28.1864 37.8355C26.3469 40.1857 23.8783 41.9657 21.0673 42.9685C18.2564 43.9713 15.2186 44.1559 12.3069 43.5006C9.39523 42.8453 6.72931 41.3772 4.61896 39.2669C2.50861 37.1565 1.0405 34.4906 0.385238 31.5789C-0.27002 28.6673 -0.085512 25.6294 0.917317 22.8185C1.92015 20.0075 3.70012 17.5389 6.05036 15.6995C8.40061 13.86 11.2246 12.7254 14.1942 12.4273C15.0608 12.339 15.7685 13.0544 15.7685 13.9243V26.5397C15.7685 27.4119 16.475 28.1174 17.3461 28.1174H29.9604ZM86.6497 47.1183C87.9043 47.1183 89.1076 47.6167 89.9948 48.5039C90.8819 49.391 91.3803 50.5943 91.3803 51.8489C91.3803 53.1036 90.8819 54.3068 89.9948 55.194C89.1076 56.0812 87.9043 56.5796 86.6497 56.5796H78.766C77.5114 56.5796 76.3081 56.0812 75.421 55.194C74.5338 54.3068 74.0354 53.1036 74.0354 51.8489C74.0354 50.5943 74.5338 49.391 75.421 48.5039C76.3081 47.6167 77.5114 47.1183 78.766 47.1183H86.6497ZM81.9191 43.9642C90.6285 43.9642 97.6886 36.9041 97.6886 28.1957C97.6923 25.5207 97.0125 22.889 95.7135 20.5505L98.319 17.9451C98.6191 17.6449 98.8571 17.2884 99.0195 16.8962C99.1818 16.5039 99.2653 16.0836 99.2652 15.659C99.2651 15.2345 99.1814 14.8142 99.0189 14.422C98.8563 14.0299 98.6181 13.6735 98.3179 13.3734C98.0176 13.0733 97.6612 12.8353 97.269 12.6729C96.8767 12.5106 96.4563 12.4271 96.0318 12.4272C95.6073 12.4273 95.1869 12.511 94.7948 12.6735C94.4026 12.8361 94.0463 13.0743 93.7462 13.3745L91.472 15.6488C88.7283 13.5533 85.3703 12.4207 81.9179 12.4262C73.2107 12.4273 66.1517 19.4852 66.1517 28.1957C66.1517 36.9041 73.2107 43.9642 81.9191 43.9642ZM130.803 28.1957C130.803 36.9041 123.743 43.9642 115.034 43.9642C106.325 43.9642 99.2651 36.9041 99.2651 28.1957C99.2651 19.4852 106.325 12.4273 115.034 12.4273C123.743 12.4273 130.803 19.4863 130.803 28.1957Z" fill="#E7EBE9"/>
</svg>
