<svg width="196" height="40" viewBox="0 0 196 40" fill="none" xmlns="http://www.w3.org/2000/svg">
<g clip-path="url(#clip0_4518_150)">
<path d="M176.706 29.3698C177.358 27.3972 176 25.589 174.316 24.5479C173.23 24.5479 171.817 24.5479 170.894 23.7808C170.188 22.7945 169.536 22.0821 169.264 20.8767C170.133 19.5616 169.101 18.1369 170.296 16.8767C171.6 15.8904 172.849 15.452 174.153 14.5205C174.642 14.1369 174.153 13.7534 174.316 13.2602C175.62 12.6027 175.022 11.1232 176.326 10.3561C177.793 9.97255 177.086 9.53419 176.598 8.71228C177.304 7.5068 177.195 6.13693 177.63 4.76707C176.109 3.94515 175.837 1.64378 174.153 1.26022C173.338 -0.109643 171.057 -0.0548488 169.699 0.164329C168.504 0.986247 170.133 1.4794 168.938 2.4109C168.015 4.38351 169.427 3.99995 170.405 4.98625C171.926 5.31501 172.306 4.98625 173.012 6.63008C172.415 7.99995 173.501 10.0273 172.143 10.8493C172.143 11.6164 172.035 11.9452 171.22 11.726C168.558 13.2054 171.437 9.09584 170.785 8.21912C169.373 6.30132 170.405 6.90406 170.677 5.75337C169.264 5.36981 166.928 3.83556 167.037 6.41091C166.44 6.41091 165.516 7.01365 165.733 7.67118C165.896 8.10954 166.765 8.4931 165.57 8.76707C165.244 8.38351 165.462 7.99995 164.81 8.10954C166.059 9.97255 164.701 9.4246 165.027 11.5068C165.353 13.589 164.321 15.6712 165.57 17.6986C165.951 18.7945 165.299 18.8493 165.19 19.726C165.136 20.3287 165.462 21.2602 164.756 21.6438C165.244 22.9041 164.049 23.6164 164.756 24.7123C163.995 25.315 164.538 25.589 164.919 26.3013C164.756 26.7945 164.049 27.178 164.593 27.6712C164.593 28.5479 163.995 29.4246 164.267 30.3013C164.864 30.6849 164.756 30.9589 164.756 31.6712C164.864 32.3287 165.407 32.5479 164.375 32.9863C164.375 33.8082 165.136 34.6301 164.919 35.5068C163.289 36.9315 167.037 37.315 165.136 38.3013C164.973 38.6301 163.995 39.6712 164.538 40C165.407 39.726 166.765 40.1095 166.005 38.9589C168.178 36.2191 172.904 36.8767 175.783 35.5616C175.837 34.7397 176.76 33.6986 176.598 32.7671C177.304 32.4383 176.978 31.8904 176.815 31.2876C176.598 30.3013 179.694 28.2191 176.815 29.3698H176.706ZM173.393 31.8904C173.067 32.7671 167.417 34.1369 168.993 32.1643C167.852 28.2191 174.099 28.3287 173.393 31.8904ZM110.761 23.7808C110.543 25.315 110.978 26.0821 110.435 27.452C111.141 28.2191 110.543 28.9315 110.109 29.5342C111.141 30.4657 110.326 31.2328 109.457 31.9452C109.185 32.3287 108.914 33.589 108.207 33.041C107.773 31.9999 108.642 30.6849 107.827 29.5342C107.23 28.1643 108.207 26.6301 107.23 25.589C108.533 25.041 108.207 24.4383 107.501 23.3972C107.827 22.5205 107.338 22.5753 107.012 21.6438C108.262 19.1232 107.827 19.2876 105.817 17.4246C103.807 17.9725 106.306 18.9589 104.514 19.8356C104.568 21.6986 102.775 22.6301 102.178 24.2739C102.178 25.8082 102.178 28.5479 99.9506 28.1643C98.0494 29.9726 97.7778 24.4931 98.321 23.3424C97.2346 22.5205 98.158 21.4246 96.9087 20.7671C97.3432 19.452 96.0938 18.3013 96.9087 17.2054C96.4741 15.9452 95.7136 13.4794 94.084 13.315C93.3778 13.589 93.5408 14.1369 93.6494 14.7397C95.3877 15.2328 93.8124 16.0547 93.6494 16.8767C94.5185 18.5205 92.6716 19.726 92.9432 21.2054C92.6716 22.3561 93.5951 23.452 94.0297 24.4931C94.0297 25.2602 93.921 25.9178 94.3556 26.5205C92.8346 27.1232 93.5408 28.4383 93.4321 29.7534C95.7679 32.7123 88.4889 35.1232 89.2494 31.178C89.4667 30.4657 89.8469 29.9726 89.4124 29.2602C89.9556 28.4931 90.2815 27.8904 89.2494 27.5616C89.684 26.3561 89.2494 25.7534 89.5753 24.6575C88.8692 23.6712 88.5432 22.9589 89.0864 21.863C87.8914 17.6438 90.5531 13.4794 89.4124 9.53419C93.1605 7.34241 89.521 4.05474 96.6914 7.99995C98.1037 9.64378 96.5827 11.8356 98.9185 12.2739C100.222 13.4794 99.2445 15.5068 100.222 16.8219C101.2 17.3698 100.222 18.1369 100.657 18.5753C102.721 18.0273 102.286 14.9589 103.427 13.4246C103.156 12.3287 103.156 12.1643 104.296 11.8356C104.622 10.9041 104.948 9.36981 105.817 8.71228C107.338 7.56159 107.447 7.06844 109.022 8.27392C109.294 9.31502 108.207 9.36981 108.968 10.1369C109.402 11.726 109.891 13.1506 109.24 14.4657C109.783 14.6849 110 14.7945 109.511 15.3972C109.077 16.1095 108.588 15.3972 108.316 15.8904C108.751 16.4931 109.402 17.1506 109.565 17.863C110.706 17.8082 110.923 17.6438 110.598 19.0684C111.141 19.9999 110.815 19.7808 110.435 20.6575C110.923 21.9726 111.793 22.4657 110.652 23.6712L110.761 23.7808ZM68.3902 15.5616C68.4988 17.6986 67.8469 19.6164 67.5753 21.589C68.2815 22.8493 67.8469 22.9589 67.684 24.2739C68.1729 25.2054 67.5753 26.4109 67.8469 27.6164C67.3581 29.3698 66.8692 31.5616 66.2173 33.041C65.3482 35.3424 62.7951 34.4657 63.9358 32.3287C62.9581 31.726 63.9358 30.2465 63.284 29.315C60.8395 27.3424 59.8074 22.7945 56.4395 22.4109C55.5704 23.452 55.7877 25.9178 56.3852 27.1232C55.679 29.2602 54.9729 32.1095 52.2568 32.7123C51.9309 32.3835 51.3334 32.2739 50.9531 31.9999C51.1704 30.3013 51.442 28.4383 51.8766 26.6849C51.279 24.6575 51.8766 23.178 51.2247 21.1506C50.4642 20.0547 52.1482 18.8493 51.3334 17.4794C52.2025 15.6164 51.1704 14.0273 51.8223 12.1095C52.3111 11.6712 52.5827 11.3424 52.5827 10.6301C52.8 10.3013 53.9408 10.6301 53.7778 10.0273C52.2025 8.87666 53.2889 7.89036 54.1037 9.58899C55.7334 9.75337 56.1679 11.3972 57.2 12.2191C57.7432 12.9315 57.363 14.1369 58.4494 14.5205C59.9704 14.5205 58.884 14.5753 58.9926 15.6712C59.6988 16.3835 60.405 17.0958 61.3284 17.6438C62.0889 18.7397 62.7408 22.1369 64.4247 21.4794C63.1753 20.3287 64.9679 19.6712 64.5334 18.3013C64.9136 17.6438 64.5334 17.0958 64.3161 16.5479C64.9679 15.3972 64.805 14.0821 64.6963 12.8219C65.9457 12.9862 66 12.4383 66.9235 11.6712C69.1506 11.8904 66.9235 14.5753 68.5531 15.6164L68.3902 15.5616ZM195.284 27.5616C196.425 25.8082 193.654 25.8082 193.709 23.9999C192.242 23.9452 191.101 22.2465 189.906 21.4794C188.874 21.6438 187.788 20.6027 188.548 19.6164C188.657 18.7397 189.037 18.5753 189.852 18.7397C189.309 17.0958 189.743 15.2328 189.906 13.589C187.516 14.3561 187.027 10.3561 184.691 10.8493C184.474 9.69858 184.202 9.80817 183.279 10.4657C182.79 10.0821 183.062 9.53419 182.301 9.4246C180.454 9.53419 179.477 11.0136 178.064 11.5068C179.368 11.5616 178.336 12.3835 177.793 12.8219C176.543 16.8219 180.291 14.2465 179.368 15.7808C177.086 15.5616 179.368 18.4109 180.726 17.8082C181.161 17.0958 182.03 16.2739 183.007 16.4931C183.714 16.9862 183.17 18.0273 183.659 18.7945C182.953 19.5068 183.496 20.7123 182.247 20.7671C182.953 21.1506 183.062 22.1917 182.247 22.4657C181.812 22.6849 182.138 22.9589 182.573 22.7397C182.736 22.6849 182.79 22.1917 183.17 22.5205C183.496 22.7945 183.062 23.0684 183.062 23.3424C183.496 23.9999 183.062 24.3835 182.844 24.9315C183.714 25.8082 182.736 27.3424 182.301 28.1643C183.279 29.3698 181.378 30.9589 183.062 31.7808C183.279 32.4931 184.528 34.5205 182.681 33.6438C184.04 34.6301 181.378 37.315 184.528 35.7808C185.072 37.4246 186.158 35.6164 186.973 35.2328C187.516 35.452 187.136 36.5479 187.842 36.4383C188.548 36 189.58 34.6301 190.667 35.0136C191.21 33.9178 192.079 32.8767 193.22 32.4931C193.654 31.7808 194.143 31.726 194.741 31.5616C195.23 30.3561 195.23 28.8767 195.175 27.5616H195.284ZM191.101 29.863C190.069 29.863 188.928 31.5616 188.222 30.1369C186.593 31.3424 186.701 29.5342 187.19 28.2191C187.516 27.0136 188.711 28.0547 189.472 27.2876C190.123 28.7123 191.699 28.0547 191.047 29.9178L191.101 29.863ZM149.6 28.0547C148.405 29.9726 149.002 29.5342 148.405 31.6712C147.59 32.5479 146.123 34.2465 145.635 32.1643C144.928 30.0821 145.526 29.8082 143.462 27.5616C142.919 26.5205 143.407 25.589 142.484 24.8219C142.647 24.2191 142.756 23.0136 141.723 22.9589C141.017 22.5753 141.832 22.0821 141.832 21.589C141.723 20.7123 140.8 19.2876 140.04 18.7397C138.247 18.7397 138.356 19.726 138.03 21.1506C138.519 22.1917 137.432 22.5205 137.758 23.5068C138.41 23.9452 138.519 24.4931 138.03 25.315C138.736 28.1095 137.161 28.1643 137.052 30.3013C136.889 30.7945 135.585 31.8904 136.617 32.1643C135.965 33.4794 135.314 35.1232 134.336 36.1643C132.652 36.3287 131.022 37.2054 129.393 36.8219C127.328 37.6986 125.916 35.8356 128.198 34.7397C129.23 32.7671 131.565 33.9178 132.489 32.2191C134.39 30.3013 133.467 27.0684 133.956 24.5479C135.205 23.5068 134.064 21.315 135.205 20.7671C134.119 19.452 135.911 19.5068 135.585 18.3561C136.02 17.1506 135.042 15.7808 136.074 14.8493C136.943 13.863 136.4 13.0958 136.672 12.1095C138.573 10.4109 140.311 7.94515 143.027 8.4931C145.309 11.452 144.657 15.452 146.884 18.7397C145.906 20.4931 146.341 20.4931 147.753 19.9999C146.178 21.3698 148.242 22.6849 147.699 24.3835C147.59 25.4794 148.296 25.315 148.622 25.9178C148.514 26.8493 148.894 27.2328 149.546 27.9999L149.6 28.0547ZM33.9506 7.83556C34.6568 6.73967 33.0815 6.52049 33.3531 5.36981C31.9408 3.83556 29.5506 2.4657 27.5951 1.75337C26.5087 2.02734 26.8889 3.56159 25.6395 3.83556C24.6618 5.58899 23.1951 4.4931 23.8469 5.75337C24.0642 7.5068 22.7062 7.72597 22.5976 9.20543C22.5976 11.5068 22.4889 13.0958 22.2173 15.3972C21.8371 17.4794 22.2716 19.7808 21.9457 21.9178C21.2395 22.6849 21.7827 23.1232 22.326 23.726C21.4568 24.8219 22.6519 26.0821 21.5655 27.0136C23.3581 28.5479 22.5976 28.4931 21.8914 30.5753C20.9679 32.2191 22.9235 33.4246 23.1408 34.9041C23.1408 35.3424 22 36.4383 23.1408 36.6027C28.1926 37.4794 28.8988 32.4383 31.8321 30.6301C33.7334 28.0547 32.0494 29.041 32.5926 26.3561C32.0494 25.0958 29.1161 20.9862 27.6494 21.6438C26.8889 21.041 25.3679 20.2191 26.6173 19.178C25.9655 17.9178 26.9432 15.5068 28.4099 15.452C29.0618 14.3561 29.7136 14.5205 30.3655 15.0136C32.4297 13.315 35.4716 10.7945 34.1136 7.78077L33.9506 7.83556ZM26.8889 26.2465C28.8988 26.0821 28.7358 28.2191 29.8766 28.8219C30.3655 29.8082 29.279 31.178 29.3877 32.1095C28.8445 32.1643 28.1383 32.4383 27.5951 32.5479C25.9111 31.3972 23.7926 32.3835 24.4988 29.3698C25.6939 28.2739 24.8247 25.2054 26.8889 26.2465ZM30.8 10.5753C30.3655 12.2191 28.0297 12.8219 26.7803 13.589C25.8568 12.1095 26.8346 9.26022 27.4321 7.78077C30.4198 5.64378 30.5827 8.21912 30.8 10.5753ZM126.948 24.4383C127.165 22.0273 124.449 20.5479 122.928 22.2465C121.136 22.4109 120.321 24.7123 118.746 25.2054C117.551 26.3561 120.484 27.8356 118.746 29.4794C118.8 30.7945 119.615 33.1506 117.551 32.3287C117.225 32.4931 117.007 33.5342 116.193 33.315C115.486 32.3287 114.291 31.8356 113.911 30.8493C115.486 30.2465 112.825 28.2739 114.291 25.315C114.672 24.1643 113.151 23.5616 114.128 22.5205C114.237 21.9178 114.4 18.8493 113.965 18.4657L114.617 18.2465C114.454 17.2602 114.291 16.2191 113.802 15.2876C114.726 13.7534 114.78 14.7397 113.857 12.8767C115.269 12.2191 116.138 9.26022 118.094 10.3013C115.867 11.7808 118.746 11.3972 119.017 13.6986C118.8 15.8356 118.202 17.6986 119.235 19.8356C119.778 21.1506 118.474 20.0547 118.528 20.9315C120.701 21.4794 120.864 18.6301 122.765 17.9725C124.993 18.0273 125.101 15.2328 126.622 14.1369C126.405 13.3698 125.644 12.3287 126.568 11.2876C127.328 9.97255 128.198 9.53419 129.664 9.36981C129.773 9.91776 129.501 9.69858 129.284 9.91776C129.067 10.7945 129.338 11.5068 129.067 12.3835C129.773 12.6575 129.556 13.041 129.447 13.6986C129.882 14.8493 129.719 16.3835 129.338 17.5342C129.882 19.2876 131.837 21.0958 130.099 22.7397C130.479 23.6164 130.968 23.9452 130.153 24.8219C130.859 26.2465 129.23 27.0684 130.153 28.6575C130.642 29.6438 127.002 31.0136 127.002 29.5342C127.002 28.3835 127.111 27.0684 127.22 26.0821C127.383 25.9725 127.817 26.0821 127.491 25.6986C127.165 25.315 126.785 25.2602 126.785 24.5479L126.948 24.4383ZM19.1753 14.2465C19.7186 15.2328 19.0124 16.7671 18.2519 17.5342C18.5778 19.2876 17.0568 20.9315 17.8173 22.7945C18.2519 24.6027 17.0025 26.5753 18.3062 27.9999C17.1655 29.2054 17.7087 30.8493 16.9482 32.1643C16.6223 32.5479 13.7976 36.2739 13.7432 34.2465C15.4815 30.9041 13.0914 33.7534 14.3408 29.589C14.9926 28.6027 13.8519 26.9589 13.9605 25.863C14.9383 24.3835 12.8741 23.9999 11.8963 24.8219C9.66917 26.5753 5.32349 27.3972 4.88893 30.7397C3.96547 32.6575 1.79263 36 0.10868 33.1506C0.597569 32.3287 0.380285 30.4109 0.217322 29.4246C-0.217246 28.7123 0.10868 28.4931 0.65189 28.1095C-0.597492 26.3561 1.62967 24.2191 0.325964 22.4657C1.62967 21.6986 0.488927 21.0958 0.325964 19.7808C1.57535 18.4109 0.814853 15.9999 0.325964 14.1917C1.14078 13.4246 0.923495 12.2739 1.62967 11.3972C2.98769 9.97255 4.50868 8.54789 5.05189 11.3972C5.54078 11.9999 6.35559 12.8219 5.26917 13.1506C4.61732 13.863 5.10621 14.4657 4.40004 15.1232C4.34572 15.5068 5.21485 15.9999 4.78028 16.4931C3.85683 16.7671 4.12843 17.2054 4.50868 17.9178C4.07411 19.7808 4.72596 21.9725 3.96547 23.726C4.50868 26.1369 1.41238 29.8082 5.16053 26.4109C7.17041 25.5342 8.41979 22.5205 10.4297 21.589C12.005 21.863 14.0692 20.9862 14.0692 19.178C14.6124 18.6301 14.6667 18.0821 14.3951 17.4246C14.8297 15.2876 15.7531 13.5342 16.9482 11.8356C17.9803 12.2739 19.8815 12.6575 19.284 14.1917L19.1753 14.2465ZM49.2148 28.3835C49.3235 29.3698 48.8346 30.8493 48.8346 31.7808C47.9111 31.8356 47.3679 33.3698 46.3902 32.6575C45.1951 30.7945 43.5111 29.2602 42.0988 27.5068C41.8272 26.5205 42.642 24.7123 40.9037 24.8767C38.5679 25.1506 38.0247 27.8356 37.9161 29.863C39.6 30.6301 44.0544 30.1369 41.4469 33.589C39.1111 32.8219 38.1334 32.2739 35.8519 33.4246C34.9284 31.7808 37.0469 32.1095 34.6025 29.2602C35.363 27.726 35.0914 26.4109 36.5037 25.5342C36.8297 23.9999 37.1556 22.7397 37.8618 21.0958C38.6223 20.6027 38.8395 20.1095 38.3507 19.2876C39.0568 18.6849 39.6544 18.1369 39.6 17.0958C38.7852 16.3287 40.1432 15.0684 38.6223 14.8493C38.5679 14.4657 38.6223 14.1369 38.6223 13.7534C37.8618 11.8904 37.1556 9.86296 38.242 7.17803C40.4148 6.84926 41.7186 5.64378 42.9136 8.32871C43.0223 9.4794 42.2074 9.69858 43.2939 10.3561C43.5111 11.1232 43.5111 11.6164 44.3803 11.726C45.0321 12.5479 43.4025 13.6438 44.2173 14.6301C45.6297 15.3972 44.7605 17.1506 45.521 18.4657C46.3902 19.5616 45.7383 21.1506 45.7926 22.3561C47.0963 23.5616 46.4988 25.6986 48.1284 26.6301C47.9655 27.5616 48.726 27.8904 49.2148 28.3835ZM82.0247 23.9999C80.8297 23.8904 81.7531 22.2465 80.8297 22.2465C80.2864 22.5205 79.8519 22.7945 79.4173 22.2465C74.4741 20.2739 77.842 20.3835 75.5605 17.7534C75.3432 16.8219 76.1037 16.9862 76.5926 16.4931C76.9729 14.8493 77.679 12.8767 76.5383 11.3972C76.7013 10.6849 77.0815 9.91775 76.321 9.26022C76.8099 8.4931 76.484 7.72597 76.2124 6.95885C76.321 6.02734 75.8321 5.64378 75.126 5.15063C74.8 4.60269 74.8543 3.72597 74.0938 3.89036C73.5506 3.72597 73.3334 2.95885 72.9531 2.57529C71.9753 1.97255 69.8025 1.86296 69.4766 3.06844C68.3902 4.54789 67.2494 5.53419 68.7704 7.12323C68.879 7.78077 68.2272 7.89036 68.2272 8.32871C68.5531 9.26022 68.3358 10.3013 69.6395 10.3561C70.4 10.4657 71.8124 10.1917 71.6494 9.31501C72.8988 9.4246 74.0395 10.4657 74.2568 11.8356C73.2247 14.3013 74.2568 17.2054 73.0074 19.6712C73.1704 20.9862 73.4963 22.1369 72.7902 23.3424C72.4642 24.3835 73.8766 25.315 72.4642 25.6986C71.8667 26.9589 73.3877 26.3013 72.4642 28.3287C74.2025 29.3698 72.7358 31.3972 73.2247 32.8767C72.6815 35.2876 76.6469 32.8767 77.9506 33.0958C79.1457 34.2465 79.0914 32.5479 80.721 32.9863C81.5358 32.7123 81.2099 31.9452 81.5901 31.3972C82.3506 30.7397 82.9482 29.7534 82.1334 28.8219C83.6 28.5479 81.9704 25.1506 82.1334 23.9999H82.0247ZM80.2864 28.6575C80.884 30.3561 78.3852 30.0821 77.4618 30.3561C77.0272 29.8082 75.0173 29.9726 75.8864 29.4246C75.5062 27.1232 75.7778 29.0958 76.7013 26.9041C78.1136 26.4109 81.2099 26.2465 80.2321 28.6575H80.2864ZM161.116 29.863C160.41 33.1506 157.259 32.1095 155.032 33.1506C154.489 32.7123 154.326 32.4383 153.565 32.7671C152.316 31.5068 151.012 29.6986 150.904 27.8904C150.632 26.0821 150.36 23.7808 151.447 22.2465C150.849 21.863 150.198 17.6438 150.578 17.589C150.578 16.7123 149.165 15.3424 150.306 14.5753C150.795 12.8219 150.578 11.3424 150.252 9.53419C151.393 7.61638 153.131 4.05474 155.412 6.95885C156.227 6.68488 156.499 5.04104 157.096 6.84926C158.563 8.10954 158.237 5.58899 160.193 8.54789C159.975 11.3424 159.378 10.0273 157.531 11.7808C156.119 13.7534 154.76 12.0547 154.543 15.5616C153.674 16.9315 155.901 17.7534 157.042 17.589C157.748 17.0958 158.237 17.0958 158.454 18.0821C158.617 18.3561 159.161 18.5753 158.943 18.9589C158.509 19.178 158.237 19.6164 158.128 20.1095C157.477 21.9178 155.195 21.7534 155.575 23.8904C154.923 24.8219 154.38 25.3698 155.195 26.4109C154.652 29.589 157.965 27.9452 159.323 27.3424C159.486 28.4383 160.736 28.8219 161.116 29.9178V29.863Z" fill="white"/>
</g>
<defs>
<clipPath id="clip0_4518_150">
<rect width="195.556" height="40" fill="white"/>
</clipPath>
</defs>
</svg>
