<svg width="24" height="24" viewBox="0 0 24 24" fill="none" xmlns="http://www.w3.org/2000/svg">
<g clip-path="url(#clip0_4522_606)">
<path d="M12.525 0C13.8 0 15.1499 0 16.4249 0C16.4999 1.5 17.025 3.075 18.15 4.2C19.275 5.325 20.8499 5.85 22.4249 6V10.05C20.9999 9.975 19.4999 9.675 18.2249 9.075C17.6249 8.85 17.0999 8.475 16.575 8.175C16.575 11.1 16.575 14.025 16.575 16.95C16.5 18.375 16.0499 19.725 15.2249 20.925C13.9499 22.875 11.6249 24.075 9.29995 24.15C7.87495 24.225 6.44995 23.85 5.24995 23.1C3.22495 21.75 1.79995 19.575 1.57495 17.25C1.57495 16.725 1.57495 16.275 1.57495 15.75C1.72495 13.875 2.69995 12 4.12495 10.8C5.77495 9.375 8.09995 8.7 10.275 9.075C10.275 10.575 10.2 12 10.2 13.5C9.22495 13.2 8.02495 13.275 7.19995 13.875C6.59995 14.25 6.07495 14.925 5.84995 15.6C5.62495 16.125 5.69995 16.65 5.69995 17.175C5.92495 18.825 7.49995 20.175 9.22495 20.025C10.35 20.025 11.4 19.35 12 18.45C12.2249 18.15 12.375 17.775 12.375 17.4C12.45 15.6 12.45 13.8 12.45 12.075C12.525 8.025 12.525 4.05 12.525 0Z" fill="#E7EBE9"/>
</g>
<defs>
<clipPath id="clip0_4522_606">
<rect width="24" height="24" fill="white"/>
</clipPath>
</defs>
</svg>
