<svg width="860" height="49" viewBox="0 0 860 49" fill="none" xmlns="http://www.w3.org/2000/svg">
<g clip-path="url(#clip0_4501_39)">
<path d="M526.854 35.9224C527.654 33.5059 525.988 31.2909 523.921 30.0155C522.588 30.0155 520.854 30.0155 519.721 29.0758C518.854 27.8676 518.054 26.995 517.721 25.5183C518.788 23.9073 517.521 22.1621 518.988 20.6183C520.588 19.4101 522.121 18.8731 523.721 17.732C524.321 17.2621 523.721 16.7923 523.921 16.1881C525.521 15.3827 524.788 13.5703 526.388 12.6306C528.188 12.1607 527.321 11.6238 526.721 10.6169C527.588 9.1402 527.454 7.46211 527.988 5.78403C526.121 4.77718 525.788 1.958 523.721 1.48814C522.721 -0.18994 519.921 -0.122817 518.254 0.145676C516.788 1.15253 518.788 1.75663 517.321 2.89773C516.188 5.31417 517.921 4.84431 519.121 6.05253C520.988 6.45527 521.454 6.05253 522.321 8.06622C521.588 9.74431 522.921 12.2279 521.254 13.2347C521.254 14.1744 521.121 14.5772 520.121 14.3087C516.854 16.121 520.388 11.0868 519.588 10.0128C517.854 7.66348 519.121 8.40184 519.454 6.99225C517.721 6.52239 514.854 4.64294 514.988 7.79773C514.254 7.79773 513.121 8.53609 513.388 9.34157C513.588 9.87855 514.654 10.3484 513.188 10.684C512.788 10.2142 513.054 9.74431 512.254 9.87855C513.788 12.1607 512.121 11.4895 512.521 14.0402C512.921 16.5909 511.654 19.1416 513.188 21.6251C513.654 22.9676 512.854 23.0347 512.721 24.1087C512.654 24.847 513.054 25.9881 512.188 26.458C512.788 28.0018 511.321 28.8744 512.188 30.2169C511.254 30.9553 511.921 31.2909 512.388 32.1635C512.188 32.7676 511.321 33.2375 511.988 33.8416C511.988 34.9155 511.254 35.9895 511.588 37.0635C512.321 37.5333 512.188 37.869 512.188 38.7416C512.321 39.547 512.988 39.8155 511.721 40.3525C511.721 41.3594 512.654 42.3662 512.388 43.4402C510.388 45.1854 514.988 45.6553 512.654 46.8635C512.454 47.2662 511.254 48.5416 511.921 48.9443C512.988 48.6087 514.654 49.0786 513.721 47.669C516.388 44.3128 522.188 45.1183 525.721 43.5073C525.788 42.5005 526.921 41.2251 526.721 40.084C527.588 39.6813 527.188 39.0101 526.988 38.2717C526.721 37.0635 530.521 34.5128 526.988 35.9224H526.854ZM522.788 39.0101C522.388 40.084 515.454 41.7621 517.388 39.3457C515.988 34.5128 523.654 34.647 522.788 39.0101ZM445.921 29.0758C445.654 30.9553 446.188 31.895 445.521 33.5731C446.388 34.5128 445.654 35.3854 445.121 36.1238C446.388 37.2649 445.388 38.2046 444.321 39.0772C443.988 39.547 443.654 41.0909 442.788 40.4196C442.254 39.1443 443.321 37.5333 442.321 36.1238C441.588 34.4457 442.788 32.5662 441.588 31.2909C443.188 30.6196 442.788 29.8813 441.921 28.6059C442.321 27.532 441.721 27.5991 441.321 26.458C442.854 23.3703 442.321 23.5717 439.854 21.2895C437.388 21.9607 440.454 23.169 438.254 24.2429C438.321 26.5251 436.121 27.6662 435.388 29.6799C435.388 31.5594 435.388 34.9155 432.654 34.4457C430.321 36.6607 429.988 29.9484 430.654 28.5388C429.321 27.532 430.454 26.1895 428.921 25.384C429.454 23.7731 427.921 22.3635 428.921 21.021C428.388 19.4772 427.454 16.4566 425.454 16.2553C424.588 16.5909 424.788 17.2621 424.921 18.0005C427.054 18.6046 425.121 19.6114 424.921 20.6183C425.988 22.632 423.721 24.1087 424.054 25.921C423.721 27.3306 424.854 28.6731 425.388 29.9484C425.388 30.8881 425.254 31.6936 425.788 32.432C423.921 33.1703 424.788 34.7813 424.654 36.3923C427.521 40.0169 418.588 42.9703 419.521 38.1375C419.788 37.2649 420.254 36.6607 419.721 35.7881C420.388 34.8484 420.788 34.1101 419.521 33.7073C420.054 32.2306 419.521 31.4923 419.921 30.1498C419.054 28.9416 418.654 28.069 419.321 26.7265C417.854 21.558 421.121 16.4566 419.721 11.6238C424.321 8.93883 419.854 4.91143 428.654 9.74431C430.388 11.758 428.521 14.4429 431.388 14.9799C432.988 16.4566 431.788 18.9402 432.988 20.5512C434.188 21.2224 432.988 22.1621 433.521 22.6991C436.054 22.0279 435.521 18.269 436.921 16.3895C436.588 15.047 436.588 14.8457 437.988 14.4429C438.388 13.3018 438.788 11.4224 439.854 10.6169C441.721 9.20732 441.854 8.60321 443.788 10.0799C444.121 11.3553 442.788 11.4224 443.721 12.3621C444.254 14.3087 444.854 16.0539 444.054 17.6649C444.721 17.9333 444.988 18.0676 444.388 18.806C443.854 19.6786 443.254 18.806 442.921 19.4101C443.454 20.1484 444.254 20.9539 444.454 21.8265C445.854 21.7594 446.121 21.558 445.721 23.3032C446.388 24.4443 445.988 24.1758 445.521 25.2498C446.121 26.8607 447.188 27.4649 445.788 28.9416L445.921 29.0758ZM393.921 19.0073C394.054 21.6251 393.254 23.9744 392.921 26.3909C393.788 27.9347 393.254 28.069 393.054 29.6799C393.654 30.821 392.921 32.2977 393.254 33.7744C392.654 35.9224 392.054 38.6073 391.254 40.4196C390.188 43.2388 387.054 42.1649 388.454 39.547C387.254 38.8087 388.454 36.9964 387.654 35.8553C384.654 33.4388 383.388 27.8676 379.254 27.3977C378.188 28.6731 378.454 31.6936 379.188 33.1703C378.321 35.7881 377.454 39.2786 374.121 40.0169C373.721 39.6142 372.988 39.4799 372.521 39.1443C372.788 37.0635 373.121 34.7813 373.654 32.6333C372.921 30.1498 373.654 28.3375 372.854 25.8539C371.921 24.5114 373.988 23.0347 372.988 21.3566C374.054 19.0744 372.788 17.1279 373.588 14.7786C374.188 14.2416 374.521 13.8388 374.521 12.9662C374.788 12.5635 376.188 12.9662 375.988 12.2279C374.054 10.8183 375.388 9.61006 376.388 11.6909C378.388 11.8923 378.921 13.9059 380.188 14.9128C380.854 15.7854 380.388 17.2621 381.721 17.732C383.588 17.732 382.254 17.7991 382.388 19.1416C383.254 20.0142 384.121 20.8868 385.254 21.558C386.188 22.9005 386.988 27.0621 389.054 26.2566C387.521 24.847 389.721 24.0416 389.188 22.3635C389.654 21.558 389.188 20.8868 388.921 20.2155C389.721 18.806 389.521 17.195 389.388 15.6512C390.921 15.8525 390.988 15.1813 392.121 14.2416C394.854 14.5101 392.121 17.7991 394.121 19.0744L393.921 19.0073ZM549.654 33.7073C551.054 31.5594 547.654 31.5594 547.721 29.3443C545.921 29.2772 544.521 27.1964 543.054 26.2566C541.788 26.458 540.454 25.1827 541.388 23.9744C541.521 22.9005 541.988 22.6991 542.988 22.9005C542.321 20.8868 542.854 18.6046 543.054 16.5909C540.121 17.5306 539.521 12.6306 536.654 13.2347C536.388 11.8251 536.054 11.9594 534.921 12.7649C534.321 12.295 534.654 11.6238 533.721 11.4895C531.454 11.6238 530.254 13.4361 528.521 14.0402C530.121 14.1073 528.854 15.1142 528.188 15.6512C526.654 20.5512 531.254 17.3964 530.121 19.2758C527.321 19.0073 530.121 22.4977 531.788 21.7594C532.321 20.8868 533.388 19.8799 534.588 20.1484C535.454 20.7525 534.788 22.0279 535.388 22.9676C534.521 23.8402 535.188 25.3169 533.654 25.384C534.521 25.8539 534.654 27.1292 533.654 27.4649C533.121 27.7333 533.521 28.069 534.054 27.8005C534.254 27.7333 534.321 27.1292 534.788 27.532C535.188 27.8676 534.654 28.2032 534.654 28.5388C535.188 29.3443 534.654 29.8142 534.388 30.4854C535.454 31.5594 534.254 33.4388 533.721 34.4457C534.921 35.9224 532.588 37.869 534.654 38.8758C534.921 39.7484 536.454 42.232 534.188 41.158C535.854 42.3662 532.588 45.6553 536.454 43.7758C537.121 45.7895 538.454 43.5744 539.454 43.1046C540.121 43.3731 539.654 44.7155 540.521 44.5813C541.388 44.0443 542.654 42.3662 543.988 42.8361C544.654 41.4936 545.721 40.2183 547.121 39.7484C547.654 38.8758 548.254 38.8087 548.988 38.6073C549.588 37.1306 549.588 35.3183 549.521 33.7073H549.654ZM544.521 36.5265C543.254 36.5265 541.854 38.6073 540.988 36.8621C538.988 38.3388 539.121 36.1238 539.721 34.5128C540.121 33.0361 541.588 34.3114 542.521 33.3717C543.321 35.1169 545.254 34.3114 544.454 36.5936L544.521 36.5265ZM493.588 34.3114C492.121 36.6607 492.854 36.1238 492.121 38.7416C491.121 39.8155 489.321 41.8964 488.721 39.3457C487.854 36.795 488.588 36.4594 486.054 33.7073C485.388 32.432 485.988 31.2909 484.854 30.3512C485.054 29.6128 485.188 28.1361 483.921 28.069C483.054 27.5991 484.054 26.995 484.054 26.3909C483.921 25.3169 482.788 23.5717 481.854 22.9005C479.654 22.9005 479.788 24.1087 479.388 25.8539C479.988 27.1292 478.654 27.532 479.054 28.7402C479.854 29.2772 479.988 29.9484 479.388 30.9553C480.254 34.3786 478.321 34.4457 478.188 37.0635C477.988 37.6676 476.388 39.0101 477.654 39.3457C476.854 40.9566 476.054 42.9703 474.854 44.2457C472.788 44.447 470.788 45.521 468.788 45.0512C466.254 46.1251 464.521 43.8429 467.321 42.5005C468.588 40.084 471.454 41.4936 472.588 39.4128C474.921 37.0635 473.788 33.1032 474.388 30.0155C475.921 28.7402 474.521 26.0553 475.921 25.384C474.588 23.7731 476.788 23.8402 476.388 22.4306C476.921 20.9539 475.721 19.2758 476.988 18.1347C478.054 16.9265 477.388 15.9868 477.721 14.7786C480.054 12.6977 482.188 9.67718 485.521 10.3484C488.321 13.9731 487.521 18.8731 490.254 22.9005C489.054 25.0484 489.588 25.0484 491.321 24.4443C489.388 26.1224 491.921 27.7333 491.254 29.8142C491.121 31.1566 491.988 30.9553 492.388 31.6936C492.254 32.8347 492.721 33.3046 493.521 34.2443L493.588 34.3114ZM351.654 9.54294C352.521 8.20047 350.588 7.93198 350.921 6.52239C349.188 4.64294 346.254 2.96485 343.854 2.09225C342.521 2.42787 342.988 4.30732 341.454 4.64294C340.254 6.79088 338.454 5.44842 339.254 6.99225C339.521 9.1402 337.854 9.40869 337.721 11.221C337.721 14.0402 337.588 15.9868 337.254 18.806C336.788 21.3566 337.321 24.1758 336.921 26.7936C336.054 27.7333 336.721 28.2703 337.388 29.0087C336.321 30.3512 337.788 31.895 336.454 33.0361C338.654 34.9155 337.721 34.8484 336.854 37.3991C335.721 39.4128 338.121 40.8895 338.388 42.7018C338.388 43.2388 336.988 44.5813 338.388 44.7827C344.588 45.8566 345.454 39.6813 349.054 37.4662C351.388 34.3114 349.321 35.5196 349.988 32.2306C349.321 30.6868 345.721 25.6525 343.921 26.458C342.988 25.7196 341.121 24.7128 342.654 23.4375C341.854 21.8936 343.054 18.9402 344.854 18.8731C345.654 17.5306 346.454 17.732 347.254 18.3361C349.788 16.2553 353.521 13.1676 351.854 9.47581L351.654 9.54294ZM342.988 32.0964C345.454 31.895 345.254 34.5128 346.654 35.2512C347.254 36.4594 345.921 38.1375 346.054 39.2786C345.388 39.3457 344.521 39.6813 343.854 39.8155C341.788 38.4059 339.188 39.6142 340.054 35.9224C341.521 34.5799 340.454 30.821 342.988 32.0964ZM347.788 12.8991C347.254 14.9128 344.388 15.6512 342.854 16.5909C341.721 14.7786 342.921 11.2881 343.654 9.47581C347.321 6.858 347.521 10.0128 347.788 12.8991ZM465.788 29.8813C466.054 26.9279 462.721 25.1155 460.854 27.1964C458.654 27.3977 457.654 30.2169 455.721 30.821C454.254 32.2306 457.854 34.0429 455.721 36.0566C455.788 37.6676 456.788 40.5539 454.254 39.547C453.854 39.7484 453.588 41.0238 452.588 40.7553C451.721 39.547 450.254 38.9429 449.788 37.7347C451.721 36.9964 448.454 34.5799 450.254 30.9553C450.721 29.5457 448.854 28.8073 450.054 27.532C450.188 26.7936 450.388 23.0347 449.854 22.5649L450.654 22.2964C450.454 21.0881 450.254 19.8128 449.654 18.6717C450.788 16.7922 450.854 18.0005 449.721 15.7183C451.454 14.9128 452.521 11.2881 454.921 12.5635C452.188 14.3758 455.721 13.9059 456.054 16.7251C455.788 19.3429 455.054 21.6251 456.321 24.2429C456.988 25.8539 455.388 24.5114 455.454 25.5854C458.121 26.2566 458.321 22.7662 460.654 21.9607C463.388 22.0279 463.521 18.6046 465.388 17.2621C465.121 16.3224 464.188 15.047 465.321 13.7717C466.254 12.1607 467.321 11.6238 469.121 11.4224C469.254 12.0936 468.921 11.8251 468.654 12.0936C468.388 13.1676 468.721 14.0402 468.388 15.1142C469.254 15.4498 468.988 15.9196 468.854 16.7251C469.388 18.1347 469.188 20.0142 468.721 21.4238C469.388 23.5717 471.788 25.7868 469.654 27.8005C470.121 28.8744 470.721 29.2772 469.721 30.3512C470.588 32.0964 468.588 33.1032 469.721 35.0498C470.321 36.258 465.854 37.9361 465.854 36.1238C465.854 34.7142 465.988 33.1032 466.121 31.895C466.321 31.7607 466.854 31.895 466.454 31.4251C466.054 30.9553 465.588 30.8881 465.588 30.0155L465.788 29.8813ZM333.521 17.3964C334.188 18.6046 333.321 20.484 332.388 21.4238C332.788 23.5717 330.921 25.5854 331.854 27.8676C332.388 30.0827 330.854 32.4991 332.454 34.2443C331.054 35.721 331.721 37.7347 330.788 39.3457C330.388 39.8155 326.921 44.3799 326.854 41.8964C328.988 37.8018 326.054 41.2923 327.588 36.1909C328.388 34.9827 326.988 32.969 327.121 31.6265C328.321 29.8142 325.788 29.3443 324.588 30.3512C321.854 32.4991 316.521 33.5059 315.988 37.6005C314.854 39.9498 312.188 44.0443 310.121 40.5539C310.721 39.547 310.454 37.1977 310.254 35.9895C309.721 35.1169 310.121 34.8484 310.788 34.3786C309.254 32.2306 311.988 29.6128 310.388 27.4649C311.988 26.5251 310.588 25.7868 310.388 24.1758C311.921 22.4977 310.988 19.5443 310.388 17.3292C311.388 16.3895 311.121 14.9799 311.988 13.9059C313.654 12.1607 315.521 10.4155 316.188 13.9059C316.788 14.6443 317.788 15.6512 316.454 16.0539C315.654 16.9265 316.254 17.6649 315.388 18.4703C315.321 18.9402 316.388 19.5443 315.854 20.1484C314.721 20.484 315.054 21.021 315.521 21.8936C314.988 24.1758 315.788 26.8607 314.854 29.0087C315.521 31.9621 311.721 36.4594 316.321 32.2977C318.788 31.2238 320.321 27.532 322.788 26.3909C324.721 26.7265 327.254 25.6525 327.254 23.4375C327.921 22.7662 327.988 22.095 327.654 21.2895C328.188 18.6717 329.321 16.5238 330.788 14.4429C332.054 14.9799 334.388 15.4498 333.654 17.3292L333.521 17.3964ZM370.388 34.7142C370.521 35.9224 369.921 37.7347 369.921 38.8758C368.788 38.9429 368.121 40.8224 366.921 39.9498C365.454 37.6676 363.388 35.7881 361.654 33.6402C361.321 32.432 362.321 30.2169 360.188 30.4183C357.321 30.7539 356.654 34.0429 356.521 36.5265C358.588 37.4662 364.054 36.8621 360.854 41.0909C357.988 40.1512 356.788 39.4799 353.988 40.8895C352.854 38.8758 355.454 39.2786 352.454 35.7881C353.388 33.9087 353.054 32.2977 354.788 31.2238C355.188 29.3443 355.588 27.8005 356.454 25.7868C357.388 25.1827 357.654 24.5786 357.054 23.5717C357.921 22.8333 358.654 22.1621 358.588 20.8868C357.588 19.947 359.254 18.4032 357.388 18.1347C357.321 17.6649 357.388 17.2621 357.388 16.7923C356.454 14.5101 355.588 12.0265 356.921 8.73746C359.588 8.33472 361.188 6.858 362.654 10.147C362.788 11.5566 361.788 11.8251 363.121 12.6306C363.388 13.5703 363.388 14.1744 364.454 14.3087C365.254 15.3155 363.254 16.658 364.254 17.8662C365.988 18.806 364.921 20.9539 365.854 22.5649C366.921 23.9073 366.121 25.8539 366.188 27.3306C367.788 28.8073 367.054 31.4251 369.054 32.5662C368.854 33.7073 369.788 34.1101 370.388 34.7142ZM410.654 29.3443C409.188 29.2101 410.321 27.1964 409.188 27.1964C408.521 27.532 407.988 27.8676 407.454 27.1964C401.388 24.7799 405.521 24.9142 402.721 21.6923C402.454 20.5512 403.388 20.7525 403.988 20.1484C404.454 18.1347 405.321 15.7183 403.921 13.9059C404.121 13.0333 404.588 12.0936 403.654 11.2881C404.254 10.3484 403.854 9.40869 403.521 8.46896C403.654 7.32787 403.054 6.858 402.188 6.25389C401.788 5.58266 401.854 4.50869 400.921 4.71006C400.254 4.50869 399.988 3.56896 399.521 3.0991C398.321 2.36074 395.654 2.2265 395.254 3.70321C393.921 5.51554 392.521 6.72376 394.388 8.67033C394.521 9.47581 393.721 9.61006 393.721 10.147C394.121 11.2881 393.854 12.5635 395.454 12.6306C396.388 12.7649 398.121 12.4292 397.921 11.3553C399.454 11.4895 400.854 12.7649 401.121 14.4429C399.854 17.4635 401.121 21.021 399.588 24.0416C399.788 25.6525 400.188 27.0621 399.321 28.5388C398.921 29.8142 400.654 30.9553 398.921 31.4251C398.188 32.969 400.054 32.1635 398.921 34.647C401.054 35.9224 399.254 38.4059 399.854 40.2183C399.188 43.1717 404.054 40.2183 405.654 40.4868C407.121 41.8964 407.054 39.8155 409.054 40.3525C410.054 40.0169 409.654 39.0772 410.121 38.4059C411.054 37.6005 411.788 36.3923 410.788 35.2512C412.588 34.9155 410.588 30.7539 410.788 29.3443H410.654ZM408.521 35.0498C409.254 37.1306 406.188 36.795 405.054 37.1306C404.521 36.4594 402.054 36.6607 403.121 35.9895C402.654 33.1703 402.988 35.5868 404.121 32.9018C405.854 32.2977 409.654 32.0964 408.454 35.0498H408.521ZM507.721 36.5265C506.854 40.5539 502.988 39.2786 500.254 40.5539C499.588 40.0169 499.388 39.6813 498.454 40.084C496.921 38.5402 495.321 36.3251 495.188 34.1101C494.854 31.895 494.521 29.0758 495.854 27.1964C495.121 26.7265 494.321 21.558 494.788 21.4909C494.788 20.4169 493.054 18.7388 494.454 17.7991C495.054 15.6512 494.788 13.8388 494.388 11.6238C495.788 9.27444 497.921 4.91143 500.721 8.46896C501.721 8.13335 502.054 6.11965 502.788 8.33472C504.588 9.87855 504.188 6.79088 506.588 10.4155C506.321 13.8388 505.588 12.2279 503.321 14.3758C501.588 16.7923 499.921 14.7114 499.654 19.0073C498.588 20.6854 501.321 21.6922 502.721 21.4909C503.588 20.8868 504.188 20.8868 504.454 22.095C504.654 22.4306 505.321 22.6991 505.054 23.169C504.521 23.4375 504.188 23.9744 504.054 24.5786C503.254 26.7936 500.454 26.5922 500.921 29.2101C500.121 30.3512 499.454 31.0224 500.454 32.2977C499.788 36.1909 503.854 34.1772 505.521 33.4388C505.721 34.7813 507.254 35.2512 507.721 36.5936V36.5265Z" fill="white"/>
</g>
<defs>
<clipPath id="clip0_4501_39">
<rect width="860" height="48.9443" fill="white"/>
</clipPath>
</defs>
</svg>
