<svg width="168" height="35" viewBox="0 0 168 35" fill="none" xmlns="http://www.w3.org/2000/svg">
<g clip-path="url(#clip0_4522_574)">
<path d="M151.807 25.4648C152.367 23.7881 151.2 22.2511 149.753 21.3662C148.82 21.3662 147.607 21.3662 146.813 20.7141C146.207 19.8758 145.647 19.2703 145.413 18.2456C146.16 17.1278 145.273 15.9169 146.3 14.8456C147.42 14.0073 148.493 13.6347 149.613 12.8429C150.033 12.5169 149.613 12.1908 149.753 11.7717C150.873 11.2127 150.36 9.95521 151.48 9.30316C152.74 8.97713 152.133 8.60453 151.713 7.9059C152.32 6.88124 152.227 5.71686 152.6 4.55247C151.293 3.85384 151.06 1.89768 149.613 1.57165C148.913 0.407267 146.953 0.453842 145.787 0.640144C144.76 1.33877 146.16 1.75795 145.133 2.54973C144.34 4.22645 145.553 3.90042 146.393 4.73877C147.7 5.01823 148.027 4.73877 148.633 6.13604C148.12 7.30042 149.053 9.02371 147.887 9.72234C147.887 10.3744 147.793 10.6538 147.093 10.4675C144.807 11.7251 147.28 8.23193 146.72 7.48672C145.507 5.85658 146.393 6.36891 146.627 5.39083C145.413 5.0648 143.407 3.76069 143.5 5.94973C142.987 5.94973 142.193 6.46206 142.38 7.02097C142.52 7.39357 143.267 7.7196 142.24 7.95247C141.96 7.62645 142.147 7.30042 141.587 7.39357C142.66 8.97713 141.493 8.51138 141.773 10.2812C142.053 12.0511 141.167 13.821 142.24 15.5443C142.567 16.4758 142.007 16.5223 141.913 17.2675C141.867 17.7799 142.147 18.5717 141.54 18.8977C141.96 19.9689 140.933 20.5744 141.54 21.5059C140.887 22.0182 141.353 22.2511 141.68 22.8566C141.54 23.2758 140.933 23.6018 141.4 24.021C141.4 24.7662 140.887 25.5114 141.12 26.2566C141.633 26.5826 141.54 26.8155 141.54 27.421C141.633 27.9799 142.1 28.1662 141.213 28.5388C141.213 29.2374 141.867 29.936 141.68 30.6812C140.28 31.8922 143.5 32.2182 141.867 33.0566C141.727 33.336 140.887 34.221 141.353 34.5004C142.1 34.2675 143.267 34.5936 142.613 33.6155C144.48 31.2867 148.54 31.8456 151.013 30.7278C151.06 30.0292 151.853 29.1443 151.713 28.3525C152.32 28.073 152.04 27.6073 151.9 27.0949C151.713 26.2566 154.373 24.4867 151.9 25.4648H151.807ZM148.96 27.6073C148.68 28.3525 143.827 29.5169 145.18 27.8401C144.2 24.4867 149.567 24.5799 148.96 27.6073ZM95.1533 20.7141C94.9667 22.0182 95.34 22.6703 94.8733 23.8347C95.48 24.4867 94.9667 25.0922 94.5933 25.6045C95.48 26.3963 94.78 27.0484 94.0333 27.6538C93.8 27.9799 93.5667 29.0511 92.96 28.5854C92.5867 27.7004 93.3333 26.5826 92.6333 25.6045C92.12 24.4401 92.96 23.136 92.12 22.2511C93.24 21.7854 92.96 21.273 92.3533 20.3881C92.6333 19.6429 92.2133 19.6895 91.9333 18.8977C93.0067 16.7552 92.6333 16.8949 90.9067 15.3114C89.18 15.7771 91.3267 16.6155 89.7867 17.3607C89.8333 18.9443 88.2933 19.736 87.78 21.1333C87.78 22.4374 87.78 24.7662 85.8667 24.4401C84.2333 25.9771 84 21.3196 84.4667 20.3415C83.5333 19.6429 84.3267 18.7114 83.2533 18.1525C83.6267 17.0347 82.5533 16.0566 83.2533 15.1251C82.88 14.0538 82.2267 11.958 80.8267 11.8182C80.22 12.0511 80.36 12.5169 80.4533 13.0292C81.9467 13.4484 80.5933 14.147 80.4533 14.8456C81.2 16.2429 79.6133 17.2675 79.8467 18.5251C79.6133 19.5032 80.4067 20.4347 80.78 21.3196C80.78 21.9717 80.6867 22.5306 81.06 23.0429C79.7533 23.5552 80.36 24.673 80.2667 25.7908C82.2733 28.3059 76.02 30.3552 76.6733 27.0018C76.86 26.3963 77.1867 25.9771 76.8133 25.3717C77.28 24.7196 77.56 24.2073 76.6733 23.9278C77.0467 22.9032 76.6733 22.3908 76.9533 21.4593C76.3467 20.621 76.0667 20.0155 76.5333 19.084C75.5067 15.4977 77.7933 11.958 76.8133 8.60453C80.0333 6.74151 76.9067 3.94699 83.0667 7.30042C84.28 8.69768 82.9733 10.5607 84.98 10.9333C86.1 11.958 85.26 13.6812 86.1 14.7991C86.94 15.2648 86.1 15.9169 86.4733 16.2895C88.2467 15.8237 87.8733 13.2155 88.8533 11.9114C88.62 10.9799 88.62 10.8401 89.6 10.5607C89.88 9.76891 90.16 8.4648 90.9067 7.9059C92.2133 6.92782 92.3067 6.50864 93.66 7.5333C93.8933 8.41823 92.96 8.4648 93.6133 9.11686C93.9867 10.4675 94.4067 11.6785 93.8467 12.7963C94.3133 12.9826 94.5 13.0758 94.08 13.5881C93.7067 14.1936 93.2867 13.5881 93.0533 14.0073C93.4267 14.5196 93.9867 15.0785 94.1267 15.684C95.1067 15.6374 95.2933 15.4977 95.0133 16.7086C95.48 17.5004 95.2 17.3141 94.8733 18.0593C95.2933 19.1771 96.04 19.5963 95.06 20.621L95.1533 20.7141ZM58.7533 13.7278C58.8467 15.5443 58.2867 17.1744 58.0533 18.8511C58.66 19.9223 58.2867 20.0155 58.1467 21.1333C58.5667 21.9251 58.0533 22.9497 58.2867 23.9744C57.8667 25.4648 57.4467 27.3278 56.8867 28.5854C56.14 30.5415 53.9467 29.7963 54.9267 27.9799C54.0867 27.4675 54.9267 26.21 54.3667 25.4182C52.2667 23.7415 51.38 19.8758 48.4867 19.5497C47.74 20.4347 47.9267 22.5306 48.44 23.5552C47.8333 25.3717 47.2267 27.7936 44.8933 28.3059C44.6133 28.0264 44.1 27.9333 43.7733 27.7004C43.96 26.2566 44.1933 24.673 44.5667 23.1826C44.0533 21.4593 44.5667 20.2018 44.0067 18.4785C43.3533 17.547 44.8 16.5223 44.1 15.358C44.8467 13.7744 43.96 12.4237 44.52 10.7936C44.94 10.421 45.1733 10.1415 45.1733 9.53603C45.36 9.25658 46.34 9.53603 46.2 9.02371C44.8467 8.04562 45.78 7.20727 46.48 8.6511C47.88 8.79083 48.2533 10.1881 49.14 10.8867C49.6067 11.4922 49.28 12.5169 50.2133 12.8429C51.52 12.8429 50.5867 12.8895 50.68 13.821C51.2867 14.4264 51.8933 15.0319 52.6867 15.4977C53.34 16.4292 53.9 19.3169 55.3467 18.758C54.2733 17.7799 55.8133 17.221 55.44 16.0566C55.7667 15.4977 55.44 15.0319 55.2533 14.5662C55.8133 13.5881 55.6733 12.4703 55.58 11.399C56.6533 11.5388 56.7 11.073 57.4933 10.421C59.4067 10.6073 57.4933 12.8895 58.8933 13.7744L58.7533 13.7278ZM167.767 23.9278C168.747 22.4374 166.367 22.4374 166.413 20.9004C165.153 20.8538 164.173 19.41 163.147 18.758C162.26 18.8977 161.327 18.0127 161.98 17.1744C162.073 16.4292 162.4 16.2895 163.1 16.4292C162.633 15.0319 163.007 13.4484 163.147 12.0511C161.093 12.7032 160.673 9.30316 158.667 9.72234C158.48 8.74425 158.247 8.83741 157.453 9.39631C157.033 9.07028 157.267 8.60453 156.613 8.51138C155.027 8.60453 154.187 9.86206 152.973 10.2812C154.093 10.3278 153.207 11.0264 152.74 11.399C151.667 14.799 154.887 12.61 154.093 13.9141C152.133 13.7278 154.093 16.1497 155.26 15.6374C155.633 15.0319 156.38 14.3333 157.22 14.5196C157.827 14.9388 157.36 15.8237 157.78 16.4758C157.173 17.0812 157.64 18.1059 156.567 18.1525C157.173 18.4785 157.267 19.3634 156.567 19.5963C156.193 19.7826 156.473 20.0155 156.847 19.8292C156.987 19.7826 157.033 19.3634 157.36 19.6429C157.64 19.8758 157.267 20.1086 157.267 20.3415C157.64 20.9004 157.267 21.2264 157.08 21.6922C157.827 22.4374 156.987 23.7415 156.613 24.4401C157.453 25.4648 155.82 26.8155 157.267 27.5141C157.453 28.1196 158.527 29.8429 156.94 29.0977C158.107 29.936 155.82 32.2182 158.527 30.9141C158.993 32.3114 159.927 30.7744 160.627 30.4484C161.093 30.6347 160.767 31.5662 161.373 31.473C161.98 31.1004 162.867 29.936 163.8 30.2621C164.267 29.3306 165.013 28.4456 165.993 28.1196C166.367 27.5141 166.787 27.4675 167.3 27.3278C167.72 26.3032 167.72 25.0456 167.673 23.9278H167.767ZM164.173 25.884C163.287 25.884 162.307 27.3278 161.7 26.1169C160.3 27.1415 160.393 25.6045 160.813 24.4867C161.093 23.4621 162.12 24.347 162.773 23.6949C163.333 24.9059 164.687 24.347 164.127 25.9306L164.173 25.884ZM128.52 24.347C127.493 25.9771 128.007 25.6045 127.493 27.421C126.793 28.1662 125.533 29.61 125.113 27.8401C124.507 26.0703 125.02 25.8374 123.247 23.9278C122.78 23.0429 123.2 22.2511 122.407 21.5991C122.547 21.0867 122.64 20.0621 121.753 20.0155C121.147 19.6895 121.847 19.2703 121.847 18.8511C121.753 18.1059 120.96 16.8949 120.307 16.4292C118.767 16.4292 118.86 17.2675 118.58 18.4785C119 19.3634 118.067 19.6429 118.347 20.4812C118.907 20.8538 119 21.3196 118.58 22.0182C119.187 24.3936 117.833 24.4401 117.74 26.2566C117.6 26.6758 116.48 27.6073 117.367 27.8401C116.807 28.958 116.247 30.3552 115.407 31.2402C113.96 31.3799 112.56 32.1251 111.16 31.7991C109.387 32.5443 108.173 30.9607 110.133 30.0292C111.02 28.3525 113.027 29.3306 113.82 27.8867C115.453 26.2566 114.66 23.5086 115.08 21.3662C116.153 20.4812 115.173 18.6182 116.153 18.1525C115.22 17.0347 116.76 17.0812 116.48 16.1032C116.853 15.0785 116.013 13.9141 116.9 13.1223C117.647 12.284 117.18 11.6319 117.413 10.7936C119.047 9.34973 120.54 7.25384 122.873 7.7196C124.833 10.2347 124.273 13.6347 126.187 16.4292C125.347 17.9196 125.72 17.9196 126.933 17.5004C125.58 18.6648 127.353 19.7826 126.887 21.2264C126.793 22.158 127.4 22.0182 127.68 22.5306C127.587 23.3223 127.913 23.6484 128.473 24.3004L128.52 24.347ZM29.1667 7.16069C29.7733 6.22919 28.42 6.04288 28.6533 5.0648C27.44 3.76069 25.3867 2.59631 23.7067 1.99083C22.7733 2.22371 23.1 3.52782 22.0267 3.76069C21.1867 5.2511 19.9267 4.3196 20.4867 5.39083C20.6733 6.88124 19.5067 7.06754 19.4133 8.32508C19.4133 10.2812 19.32 11.6319 19.0867 13.5881C18.76 15.358 19.1333 17.3141 18.8533 19.1306C18.2467 19.7826 18.7133 20.1552 19.18 20.6675C18.4333 21.5991 19.46 22.6703 18.5267 23.4621C20.0667 24.7662 19.4133 24.7196 18.8067 26.4895C18.0133 27.8867 19.6933 28.9114 19.88 30.1689C19.88 30.5415 18.9 31.473 19.88 31.6128C24.22 32.358 24.8267 28.073 27.3467 26.536C28.98 24.347 27.5333 25.1854 28 22.9032C27.5333 21.8319 25.0133 18.3388 23.7533 18.8977C23.1 18.3854 21.7933 17.6867 22.8667 16.8018C22.3067 15.7306 23.1467 13.6812 24.4067 13.6347C24.9667 12.7032 25.5267 12.8429 26.0867 13.2621C27.86 11.8182 30.4733 9.67576 29.3067 7.11412L29.1667 7.16069ZM23.1 22.81C24.8267 22.6703 24.6867 24.4867 25.6667 24.9991C26.0867 25.8374 25.1533 27.0018 25.2467 27.7936C24.78 27.8401 24.1733 28.073 23.7067 28.1662C22.26 27.1881 20.44 28.0264 21.0467 25.4648C22.0733 24.5333 21.3267 21.9251 23.1 22.81ZM26.46 9.48946C26.0867 10.8867 24.08 11.399 23.0067 12.0511C22.2133 10.7936 23.0533 8.37165 23.5667 7.11412C26.1333 5.29768 26.2733 7.48672 26.46 9.48946ZM109.06 21.273C109.247 19.2237 106.913 17.9662 105.607 19.41C104.067 19.5497 103.367 21.5059 102.013 21.9251C100.987 22.9032 103.507 24.1607 102.013 25.558C102.06 26.6758 102.76 28.6785 100.987 27.9799C100.707 28.1196 100.52 29.0045 99.82 28.8182C99.2133 27.9799 98.1867 27.5607 97.86 26.7223C99.2133 26.21 96.9267 24.5333 98.1867 22.0182C98.5133 21.0401 97.2067 20.5278 98.0467 19.6429C98.14 19.1306 98.28 16.5223 97.9067 16.1963L98.4667 16.01C98.3267 15.1717 98.1867 14.2867 97.7667 13.4949C98.56 12.1908 98.6067 13.0292 97.8133 11.4456C99.0267 10.8867 99.7733 8.37165 101.453 9.25658C99.54 10.5141 102.013 10.1881 102.247 12.1443C102.06 13.9607 101.547 15.5443 102.433 17.3607C102.9 18.4785 101.78 17.547 101.827 18.2922C103.693 18.758 103.833 16.336 105.467 15.7771C107.38 15.8237 107.473 13.4484 108.78 12.5169C108.593 11.8648 107.94 10.9799 108.733 10.0949C109.387 8.97713 110.133 8.60453 111.393 8.4648C111.487 8.93056 111.253 8.74425 111.067 8.93056C110.88 9.67576 111.113 10.2812 110.88 11.0264C111.487 11.2593 111.3 11.5854 111.207 12.1443C111.58 13.1223 111.44 14.4264 111.113 15.4045C111.58 16.8949 113.26 18.4319 111.767 19.8292C112.093 20.5744 112.513 20.8538 111.813 21.5991C112.42 22.81 111.02 23.5086 111.813 24.8593C112.233 25.6977 109.107 26.8621 109.107 25.6045C109.107 24.6264 109.2 23.5086 109.293 22.6703C109.433 22.5771 109.807 22.6703 109.527 22.3443C109.247 22.0182 108.92 21.9717 108.92 21.3662L109.06 21.273ZM16.4733 12.61C16.94 13.4484 16.3333 14.7525 15.68 15.4045C15.96 16.8949 14.6533 18.2922 15.3067 19.8758C15.68 21.4127 14.6067 23.0895 15.7267 24.3004C14.7467 25.3251 15.2133 26.7223 14.56 27.8401C14.28 28.1662 11.8533 31.3333 11.8067 29.61C13.3 26.7689 11.2467 29.1908 12.32 25.6511C12.88 24.8127 11.9 23.4155 11.9933 22.484C12.8333 21.2264 11.06 20.9004 10.22 21.5991C8.30667 23.0895 4.57334 23.7881 4.20001 26.6292C3.40667 28.2593 1.54001 31.1004 0.0933395 28.6785C0.513339 27.9799 0.326673 26.3497 0.186673 25.5114C-0.18666 24.9059 0.0933396 24.7196 0.560006 24.3936C-0.513327 22.9032 1.40001 21.0867 0.280006 19.5963C1.40001 18.9443 0.420006 18.4319 0.280006 17.3141C1.35334 16.1497 0.700006 14.1004 0.280006 12.5634C0.980006 11.9114 0.793339 10.9333 1.40001 10.1881C2.56667 8.97713 3.87334 7.76617 4.34001 10.1881C4.76001 10.7004 5.46001 11.399 4.52667 11.6785C3.96667 12.284 4.38667 12.7963 3.78001 13.3552C3.73334 13.6812 4.48001 14.1004 4.10667 14.5196C3.31334 14.7525 3.54667 15.1251 3.87334 15.7306C3.50001 17.3141 4.06001 19.1771 3.40667 20.6675C3.87334 22.7169 1.21334 25.8374 4.43334 22.9497C6.16001 22.2045 7.23334 19.6429 8.96001 18.8511C10.3133 19.084 12.0867 18.3388 12.0867 16.8018C12.5533 16.336 12.6 15.8703 12.3667 15.3114C12.74 13.4949 13.5333 12.0045 14.56 10.5607C15.4467 10.9333 17.08 11.2593 16.5667 12.5634L16.4733 12.61ZM42.28 24.6264C42.3733 25.4648 41.9533 26.7223 41.9533 27.5141C41.16 27.5607 40.6933 28.8648 39.8533 28.2593C38.8267 26.6758 37.38 25.3717 36.1667 23.8812C35.9333 23.0429 36.6333 21.5059 35.14 21.6456C33.1333 21.8785 32.6667 24.1607 32.5733 25.884C34.02 26.536 37.8467 26.1169 35.6067 29.0511C33.6 28.3991 32.76 27.9333 30.8 28.9114C30.0067 27.5141 31.8267 27.7936 29.7267 25.3717C30.38 24.0675 30.1467 22.9497 31.36 22.2045C31.64 20.9004 31.92 19.8292 32.5267 18.4319C33.18 18.0127 33.3667 17.5936 32.9467 16.8949C33.5533 16.3826 34.0667 15.9169 34.02 15.0319C33.32 14.3799 34.4867 13.3086 33.18 13.1223C33.1333 12.7963 33.18 12.5169 33.18 12.1908C32.5267 10.6073 31.92 8.88398 32.8533 6.60179C34.72 6.32234 35.84 5.29768 36.8667 7.57987C36.96 8.55795 36.26 8.74425 37.1933 9.30316C37.38 9.95521 37.38 10.3744 38.1267 10.4675C38.6867 11.1662 37.2867 12.0977 37.9867 12.936C39.2 13.5881 38.4533 15.0785 39.1067 16.1963C39.8533 17.1278 39.2933 18.4785 39.34 19.5032C40.46 20.5278 39.9467 22.3443 41.3467 23.136C41.2067 23.9278 41.86 24.2073 42.28 24.6264ZM70.4667 20.9004C69.44 20.8073 70.2333 19.41 69.44 19.41C68.9733 19.6429 68.6 19.8758 68.2267 19.41C63.98 17.7333 66.8733 17.8264 64.9133 15.5908C64.7267 14.7991 65.38 14.9388 65.8 14.5196C66.1267 13.1223 66.7333 11.4456 65.7533 10.1881C65.8933 9.58261 66.22 8.93056 65.5667 8.37165C65.9867 7.7196 65.7067 7.06754 65.4733 6.41549C65.5667 5.62371 65.1467 5.29768 64.54 4.8785C64.26 4.41275 64.3067 3.66754 63.6533 3.80727C63.1867 3.66754 63 3.01549 62.6733 2.68946C61.8333 2.17713 59.9667 2.08398 59.6867 3.10864C58.7533 4.36617 57.7733 5.20453 59.08 6.55521C59.1733 7.11412 58.6133 7.20727 58.6133 7.57987C58.8933 8.37165 58.7067 9.25658 59.8267 9.30316C60.48 9.39631 61.6933 9.16343 61.5533 8.41823C62.6267 8.51138 63.6067 9.39631 63.7933 10.5607C62.9067 12.6566 63.7933 15.1251 62.72 17.221C62.86 18.3388 63.14 19.3169 62.5333 20.3415C62.2533 21.2264 63.4667 22.0182 62.2533 22.3443C61.74 23.4155 63.0467 22.8566 62.2533 24.5799C63.7467 25.4648 62.4867 27.1881 62.9067 28.4456C62.44 30.4949 65.8467 28.4456 66.9667 28.6319C67.9933 29.61 67.9467 28.1662 69.3467 28.5388C70.0467 28.3059 69.7667 27.6538 70.0933 27.1881C70.7467 26.6292 71.26 25.7908 70.56 24.9991C71.82 24.7662 70.42 21.8785 70.56 20.9004H70.4667ZM68.9733 24.8593C69.4867 26.3032 67.34 26.0703 66.5467 26.3032C66.1733 25.8374 64.4467 25.9771 65.1933 25.5114C64.8667 23.5552 65.1 25.2319 65.8933 23.3689C67.1067 22.9497 69.7667 22.81 68.9267 24.8593H68.9733ZM138.413 25.884C137.807 28.6785 135.1 27.7936 133.187 28.6785C132.72 28.3059 132.58 28.073 131.927 28.3525C130.853 27.2812 129.733 25.7443 129.64 24.2073C129.407 22.6703 129.173 20.7141 130.107 19.41C129.593 19.084 129.033 15.4977 129.36 15.4511C129.36 14.7059 128.147 13.5415 129.127 12.8895C129.547 11.399 129.36 10.1415 129.08 8.60453C130.06 6.97439 131.553 3.94699 133.513 6.41549C134.213 6.18261 134.447 4.78535 134.96 6.32234C136.22 7.39357 135.94 5.2511 137.62 7.76617C137.433 10.1415 136.92 9.02371 135.333 10.5141C134.12 12.1908 132.953 10.747 132.767 13.7278C132.02 14.8922 133.933 15.5908 134.913 15.4511C135.52 15.0319 135.94 15.0319 136.127 15.8703C136.267 16.1032 136.733 16.2895 136.547 16.6155C136.173 16.8018 135.94 17.1744 135.847 17.5936C135.287 19.1306 133.327 18.9908 133.653 20.8073C133.093 21.5991 132.627 22.0648 133.327 22.9497C132.86 25.6511 135.707 24.2538 136.873 23.7415C137.013 24.673 138.087 24.9991 138.413 25.9306V25.884Z" fill="white"/>
</g>
<defs>
<clipPath id="clip0_4522_574">
<rect width="168" height="34" fill="white" transform="translate(0 0.5)"/>
</clipPath>
</defs>
</svg>
