<svg width="230" height="149" viewBox="0 0 230 149" fill="none" xmlns="http://www.w3.org/2000/svg">
<g clip-path="url(#clip0_4522_376)">
<path d="M145.092 29.3193C145.283 33.8374 143.942 37.7786 143.367 42.1045C144.9 44.7961 144.038 44.9883 143.558 47.7761C144.613 49.7948 143.367 52.2941 143.846 54.8896C142.792 58.6386 141.738 63.2528 140.3 66.329C138.383 71.2316 133.017 69.4051 135.413 64.7909C133.4 63.5412 135.413 60.4651 134.071 58.4464C128.8 54.3128 126.692 44.6038 119.504 43.8348C117.683 46.0457 118.163 51.2367 119.313 53.7361C117.779 58.2541 116.246 64.3103 110.592 65.5599C109.921 64.887 108.579 64.5986 107.908 64.118C108.388 60.4651 108.963 56.5238 109.825 52.967C108.579 48.7374 109.825 45.469 108.388 41.2393C106.758 38.9322 110.4 36.4328 108.579 33.4528C110.4 29.6077 108.196 26.147 109.633 22.1096C110.688 21.2445 111.167 20.4754 111.263 19.0335C111.742 18.3606 114.138 19.0335 113.85 17.7838C110.496 15.3806 112.796 13.2657 114.521 16.8225C117.971 17.207 118.833 20.6677 121.038 22.398C122.188 23.8399 121.421 26.4354 123.625 27.2045C126.788 27.2045 124.583 27.3967 124.775 29.6077C126.213 31.1457 127.746 32.6838 129.758 33.7412C131.292 36.0483 132.729 43.258 136.275 41.8161C133.592 39.3167 137.425 38.067 136.563 35.1832C137.329 33.7412 136.563 32.6838 136.083 31.4341C137.425 29.0309 137.042 26.2432 136.85 23.6477C139.533 23.9361 139.629 22.7825 141.546 21.1483C146.242 21.629 141.642 27.3006 144.996 29.4154L145.092 29.3193ZM72.0667 12.9774C73.6001 10.6703 70.1501 10.1896 70.8209 7.78639C67.8501 4.518 62.7709 1.63413 58.5542 0.0960693C56.2542 0.576714 57.0209 3.8451 54.4334 4.518C52.3251 8.17091 49.2584 5.95994 50.6001 8.55542C51.0793 12.2083 48.2043 12.7851 47.9167 15.7651C47.9167 20.6677 47.6292 24.0322 47.0542 28.8386C46.1917 33.2606 47.2459 38.067 46.4792 42.5851C45.0417 44.2193 46.0959 45.1806 47.3418 46.4303C45.4251 48.7374 48.0126 51.3328 45.7126 53.3516C49.5459 56.6199 47.9167 56.5238 46.4792 60.8496C44.4667 64.3103 48.5876 66.8096 49.0667 69.9819C49.0667 70.847 46.6709 73.2503 49.0667 73.5386C59.8001 75.3651 61.3334 64.6948 67.4668 60.9457C71.4918 55.5625 67.9459 57.5812 69.0959 52.0057C67.9459 49.3141 61.6209 40.7586 58.5542 42.1045C56.9251 40.7586 53.7626 39.1245 56.3501 36.9135C54.9126 34.2219 57.1167 29.127 60.0876 29.127C61.4292 26.8199 62.8667 27.1083 64.2084 28.2619C68.6168 24.7051 75.0376 19.3219 72.1626 12.9774H72.0667ZM57.0209 51.8135C61.3334 51.5251 60.8542 56.0432 63.3459 57.1967C64.4001 59.3116 62.1001 62.0993 62.2917 64.2141C61.1418 64.4064 59.6084 64.887 58.5542 65.1754C54.9126 62.6761 50.4084 64.887 51.9417 58.4464C54.5293 56.1393 52.6126 49.6025 57.0209 51.9096V51.8135ZM65.3584 18.8412C64.4001 22.3019 59.5126 23.5516 56.8293 25.1857C54.9126 22.0135 57.0209 16.0535 58.2668 12.8812C64.6876 8.45929 64.9751 13.8425 65.3584 18.8412ZM40.6334 26.6277C41.7834 28.6464 40.3459 32.0109 38.6209 33.549C39.2917 37.298 36.1292 40.6625 37.7584 44.6038C38.7168 48.449 36.0334 52.5825 38.7168 55.6586C36.3209 58.158 37.4709 61.6186 35.8418 64.5025C35.1709 65.3677 29.2292 73.2503 29.0376 68.9244C32.6792 61.8109 27.6001 67.867 30.2834 59.0232C31.6251 56.9083 29.2292 53.5438 29.5167 51.1406C31.6251 48.0645 27.2167 47.1993 25.1084 48.9296C20.4126 52.6786 11.2126 54.409 10.2542 61.4264C8.24175 65.5599 3.64175 72.5774 0.0959135 66.5212C1.15008 64.7909 0.670914 60.7535 0.383413 58.6386C-0.479087 57.1006 0.191747 56.7161 1.24591 55.947C-1.43742 52.198 3.35425 47.6799 0.57508 44.027C3.35425 42.3928 0.958414 41.047 0.57508 38.3554C3.25841 35.3754 1.62925 30.3767 0.57508 26.6277C2.39591 24.9935 1.91675 22.5903 3.35425 20.6677C6.22925 17.6877 9.48758 14.6116 10.6376 20.6677C11.6917 21.9174 13.4167 23.7438 11.1167 24.4167C9.67925 25.8586 10.7334 27.2045 9.29591 28.6464C9.20008 29.5115 11.0209 30.4728 10.0626 31.5303C8.14591 32.107 8.72091 32.9722 9.39175 34.5103C8.52925 38.4516 9.87091 43.0657 8.24175 46.7186C9.39175 51.8135 2.87508 59.5038 10.7334 52.3903C14.9501 50.5638 17.6334 44.2193 21.8501 42.2006C25.1084 42.7774 29.5167 40.8548 29.5167 37.1057C30.6667 35.9522 30.7626 34.7986 30.1876 33.3567C31.0501 28.8386 33.0626 25.1857 35.6501 21.5328C37.8542 22.4941 41.8792 23.2632 40.5376 26.4354L40.6334 26.6277ZM104.458 56.4277C104.65 58.4464 103.692 61.6186 103.692 63.5412C101.679 63.6374 100.529 66.9057 98.5168 65.3677C95.9293 61.4264 92.3834 58.158 89.4126 54.5051C88.8376 52.3903 90.5626 48.6412 86.9209 48.9296C82.0334 49.5064 80.8834 55.178 80.5959 59.4077C84.1417 61.0419 93.6292 59.9845 88.0709 67.1941C83.0876 65.5599 80.9792 64.4064 76.1876 66.9057C74.2709 63.4451 78.6792 64.118 73.5042 58.158C75.1334 54.8896 74.5584 52.1019 77.5293 50.2754C78.2959 47.1032 78.9668 44.4115 80.4043 40.9509C82.0334 39.9896 82.5126 38.8361 81.4584 37.1057C82.9918 35.8561 84.2376 34.7025 84.1418 32.4916C82.4168 30.8574 85.2917 28.1657 82.1292 27.7812C81.9376 27.0122 82.1292 26.2432 82.1292 25.4741C80.5001 21.5328 79.0626 17.3032 81.2668 11.5354C85.8668 10.7664 88.5501 8.36316 91.2334 14.0348C91.4251 16.438 89.7959 16.9186 92.0001 18.2645C92.4792 19.8986 92.4793 20.9561 94.2043 21.1483C95.5459 22.8786 92.0959 25.1857 93.8209 27.3006C96.7918 28.9348 94.9709 32.5877 96.6001 35.3754C98.5168 37.6825 97.0793 40.9509 97.1751 43.5464C99.9543 46.0457 98.6126 50.5638 102.158 52.4864C101.775 54.5051 103.404 55.0819 104.554 56.1393L104.458 56.4277ZM174.033 47.1032C171.542 46.9109 173.458 43.4503 171.446 43.3541C170.296 43.9309 169.338 44.5077 168.475 43.258C158.029 39.1245 165.121 39.4128 160.329 33.8374C159.946 31.9148 161.479 32.2993 162.438 31.1457C163.204 27.589 164.738 23.5516 162.342 20.3793C162.725 18.9374 163.492 17.3032 161.863 15.8612C162.917 14.227 162.246 12.5928 161.575 10.9586C161.863 9.03607 160.808 8.17091 159.275 7.20962C158.604 6.05607 158.7 4.22962 157.071 4.61413C155.921 4.32575 155.442 2.69155 154.579 1.92252C152.567 0.576714 147.871 0.384456 147.2 2.97994C144.9 6.05607 142.504 8.17091 145.667 11.5354C145.858 12.9774 144.517 13.1696 144.517 14.0348C145.188 15.9574 144.708 18.1683 147.488 18.3606C149.117 18.649 152.088 18.0722 151.8 16.1496C154.483 16.438 156.879 18.649 157.263 21.4367C155.058 26.6277 157.263 32.7799 154.579 37.9709C154.963 40.7586 155.633 43.1619 154.1 45.7574C153.333 47.8722 156.4 49.8909 153.429 50.7561C152.183 53.4477 155.346 52.0057 153.429 56.3315C157.167 58.5425 154.004 62.8683 155.058 65.9445C153.908 71.0393 162.342 65.9445 165.121 66.4251C167.613 68.9245 167.517 65.2716 170.967 66.2328C172.692 65.6561 172.021 64.0219 172.788 62.8683C174.417 61.4264 175.663 59.3116 174.033 57.4851C177.196 56.9083 173.746 49.6986 174.033 47.2954V47.1032ZM170.392 57.0045C171.638 60.6574 166.367 59.9845 164.45 60.5612C163.492 59.4077 159.275 59.6961 161.096 58.5425C160.329 53.6399 160.904 57.7735 162.821 53.2554C165.888 52.2941 172.308 51.9096 170.392 56.9083V57.0045Z" fill="#E1E1E1"/>
<path d="M190.037 126.314C191.475 122.18 188.6 118.335 185.054 116.124C182.754 116.124 179.783 116.124 177.771 114.49C176.237 112.471 174.896 110.837 174.321 108.337C176.141 105.55 174.033 102.57 176.525 99.9742C179.304 97.8594 181.891 96.8981 184.671 94.9755C185.629 94.1104 184.766 93.3413 185.054 92.38C187.833 90.9381 186.587 87.862 189.366 86.2278C192.433 85.3626 190.996 84.4975 189.941 82.7671C191.379 80.2678 191.283 77.3839 192.05 74.4039C188.791 72.6736 188.216 67.771 184.671 67.002C183.041 64.1181 178.154 64.2142 175.183 64.6949C172.691 66.4252 176.141 67.4826 173.554 69.4052C171.637 73.6349 174.608 72.7697 176.621 74.8846C179.879 75.6536 180.646 74.9807 182.083 78.2491C180.741 81.133 183.041 85.4588 180.166 87.1891C180.166 88.8233 179.975 89.4962 178.154 89.0155C172.5 92.0917 178.537 83.5362 177.196 81.6136C174.225 77.5762 176.429 78.922 177.004 76.3265C173.937 75.4613 169.05 72.2891 169.337 77.7684C167.996 77.7684 166.079 79.0181 166.558 80.46C166.846 81.3252 168.762 82.1904 166.271 82.7671C165.6 81.902 165.983 81.1329 164.641 81.4213C167.325 85.2665 164.354 84.2091 165.121 88.5349C165.791 92.8607 163.587 97.2826 166.271 101.608C167.133 103.916 165.696 104.012 165.408 105.838C165.216 107.088 165.983 109.01 164.546 109.876C165.6 112.471 163.012 114.009 164.546 116.316C162.916 117.566 164.066 118.239 164.833 119.681C164.45 120.738 163.012 121.507 164.162 122.565C164.066 124.391 162.916 126.314 163.396 128.14C164.737 128.909 164.354 129.582 164.354 131.024C164.546 132.37 165.696 132.85 163.491 133.716C163.396 135.542 165.025 137.176 164.546 139.003C161.096 141.983 169.05 142.848 164.929 144.963C164.641 145.636 162.533 147.846 163.683 148.519C165.6 147.846 168.475 148.712 166.75 146.308C171.446 140.445 181.412 141.983 187.45 139.195C187.641 137.465 189.558 135.254 189.271 133.235C190.804 132.562 190.133 131.408 189.75 130.159C189.366 128.044 195.883 123.718 189.75 126.025L190.037 126.314ZM182.946 131.793C182.275 133.716 170.296 136.503 173.554 132.274C171.062 123.91 184.383 124.199 182.946 131.793Z" fill="#E1E1E1"/>
<path d="M46.5749 114.682C46.0957 117.95 47.0541 119.585 45.9041 122.372C47.3416 123.91 46.1916 125.545 45.2332 126.698C47.3416 128.621 45.7124 130.255 43.8916 131.697C43.3166 132.466 42.7416 135.157 41.2082 134.004C40.2499 131.889 42.0707 129.005 40.4416 126.602C39.1957 123.718 41.2082 120.45 39.1957 118.239C41.8791 117.085 41.2082 115.739 39.7707 113.625C40.5374 111.702 39.4832 111.894 38.7166 109.972C41.3041 104.588 40.4416 104.973 36.2249 101.032C32.0082 102.185 37.2791 104.3 33.4457 106.127C33.5416 110.068 29.7082 111.99 28.4624 115.451C28.4624 118.719 28.4624 124.391 23.7666 123.622C19.7416 127.467 19.1666 115.836 20.2207 113.432C17.9207 111.702 19.8374 109.395 17.2499 108.049C18.2082 105.357 15.5249 102.858 17.2499 100.551C16.2916 97.8594 14.7582 92.7646 11.2124 92.3801C9.77489 92.9568 10.0624 94.2065 10.2541 95.4562C13.8957 96.5136 10.6374 98.1478 10.3499 99.9743C12.1707 103.435 8.24155 105.934 8.81655 109.107C8.24155 111.51 10.1582 113.913 11.1166 116.124C11.1166 117.758 10.9249 119.104 11.8832 120.45C8.72072 121.699 10.1582 124.487 9.87072 127.275C14.7582 133.523 -0.575114 138.522 0.958219 130.351C1.43739 128.813 2.20405 127.756 1.24572 126.314C2.39572 124.679 3.16239 123.43 0.862386 122.757C1.72489 120.257 0.862386 119.008 1.53322 116.605C-0.000114284 114.586 -0.670947 113.048 0.574886 110.741C-1.91678 101.801 3.73739 93.053 1.24572 84.7859C9.19989 80.1717 1.53322 73.1543 16.6749 81.6136C19.6457 85.0743 16.4832 89.6885 21.4666 90.6497C24.2457 93.2452 22.1374 97.4749 24.2457 100.263C26.3541 101.416 24.2457 103.05 25.1082 103.916C29.5166 102.762 28.5582 96.2252 31.0499 93.053C30.3791 90.7459 30.4749 90.3614 32.8707 89.6885C33.6374 87.7659 34.2124 84.4975 36.1291 83.0555C39.3874 80.6523 39.5791 79.5949 42.9332 82.0943C43.5082 84.2091 41.2082 84.4014 42.8374 86.0355C43.7957 89.4001 44.8499 92.3801 43.4124 95.1678C44.5624 95.6484 45.0416 95.8407 43.9874 97.1865C43.1249 98.7246 42.0707 97.1865 41.4957 98.2439C42.4541 99.5897 43.7957 100.936 44.1791 102.474C46.5749 102.281 47.0541 102.089 46.2874 104.973C47.4374 106.896 46.6707 106.511 45.9999 108.337C46.9582 111.029 48.8749 112.183 46.479 114.682H46.5749Z" fill="#E1E1E1"/>
<path d="M226.071 115.163C222.908 115.066 220.512 111.414 218.021 109.876C215.817 110.164 213.517 107.953 215.146 105.934C215.433 104.108 216.2 103.723 217.925 104.108C216.775 100.647 217.637 96.7058 218.117 93.2452C213.133 94.8794 211.983 86.42 207.096 87.4774C206.617 84.9781 206.137 85.2665 204.125 86.7084C203.071 85.9394 203.646 84.6897 202.112 84.4974C198.279 84.6897 196.171 87.862 193.2 88.8232C195.979 89.0155 193.775 90.6497 192.625 91.5149C189.942 99.9742 197.992 94.4949 195.979 97.7632C191.187 97.2826 195.979 103.243 198.854 101.993C199.717 100.455 201.633 98.7245 203.646 99.2052C205.179 100.263 204.029 102.377 204.987 104.108C203.454 105.646 204.7 108.145 202.017 108.337C203.55 109.203 203.742 111.414 202.017 111.894C201.058 112.375 201.825 112.855 202.687 112.471C202.975 112.279 203.167 111.317 203.933 111.99C204.604 112.567 203.646 113.24 203.646 113.721C204.604 115.066 203.55 115.932 203.167 117.085C204.987 119.008 202.975 122.18 202.017 124.006C204.029 126.602 200.004 129.87 203.646 131.601C204.125 133.139 206.712 137.368 202.783 135.542C205.562 137.561 200.004 143.328 206.712 140.06C207.862 143.521 210.162 139.675 211.887 138.906C213.037 139.387 212.271 141.598 213.708 141.406C215.146 140.445 217.35 137.657 219.746 138.33C220.896 136.023 222.717 133.812 225.208 133.043C226.071 131.505 227.125 131.505 228.467 131.12C229.521 128.621 229.425 125.448 229.425 122.661C231.821 118.912 225.879 118.912 226.071 115.163ZM220.512 127.467C218.404 127.467 215.912 131.024 214.379 128.044C210.929 130.543 211.121 126.794 212.175 124.006C212.846 121.411 215.433 123.622 217.062 121.988C218.5 125.064 221.758 123.622 220.417 127.467H220.512Z" fill="#E1E1E1"/>
<path d="M131.387 123.622C128.896 127.659 130.141 126.794 128.896 131.312C127.171 133.139 124.008 136.792 123.05 132.37C121.516 127.948 122.858 127.467 118.45 122.661C117.3 120.45 118.354 118.431 116.341 116.893C116.725 115.643 116.916 113.048 114.712 112.952C113.179 112.087 114.904 111.125 114.904 110.068C114.616 108.241 112.7 105.165 111.166 104.108C107.333 104.108 107.621 106.223 106.95 109.203C108.004 111.414 105.704 112.183 106.375 114.105C107.716 115.067 108.004 116.22 106.95 117.854C108.483 123.814 105.033 123.814 104.841 128.332C104.554 129.39 101.775 131.697 103.979 132.178C102.541 134.869 101.2 138.426 99.0915 140.637C95.4498 141.021 92.0957 142.848 88.6457 142.079C84.3332 143.905 81.3623 139.964 86.0582 137.657C88.1665 133.523 93.1498 135.927 95.1623 132.37C99.1873 128.332 97.1748 121.507 98.3248 116.22C101.008 114.105 98.5165 109.395 101.008 108.241C98.7082 105.454 102.541 105.55 101.871 103.243C102.829 100.743 100.721 97.7634 102.925 95.9369C104.746 93.9182 103.691 92.1879 104.171 90.1692C108.196 86.5163 111.837 81.4214 117.683 82.4788C122.475 88.7272 121.229 97.1866 125.829 104.108C123.721 107.761 124.679 107.761 127.65 106.799C124.391 109.683 128.704 112.471 127.458 116.028C127.171 118.335 128.8 117.95 129.471 119.2C129.279 121.123 130.141 121.988 131.483 123.622H131.387Z" fill="#E1E1E1"/>
<path d="M82.7042 116.028C83.1833 110.933 77.3375 107.857 74.175 111.414C70.3417 111.702 68.6166 116.605 65.2625 117.566C62.675 120.065 68.9041 123.045 65.2625 126.506C65.3583 129.294 67.0833 134.292 62.7708 132.562C62.1 132.946 61.6208 135.157 59.8958 134.581C58.4583 132.466 55.775 131.408 55.0083 129.39C58.3625 128.14 52.7083 123.91 55.8708 117.662C56.6375 115.259 53.475 113.913 55.5833 111.798C55.775 110.548 56.1583 104.012 55.2 103.243L56.5416 102.858C56.2541 100.839 55.8708 98.6284 54.8167 96.6097C56.7333 93.4374 56.925 95.36 55.0083 91.611C58.075 90.2652 59.8 83.9207 64.0167 86.1316C59.225 89.3039 65.3583 88.4387 66.0292 93.2452C65.55 97.7632 64.3042 101.705 66.5083 106.126C67.6583 108.914 64.8792 106.511 64.975 108.337C69.575 109.587 69.9583 103.435 73.9833 102.185C78.6791 102.377 78.9667 96.3213 82.225 94.1103C81.7458 92.4761 80.1166 90.2652 82.1291 88.1503C83.7583 85.3626 85.5791 84.4013 88.7416 84.1129C89.0291 85.1703 88.3583 84.8819 87.975 85.2665C87.4958 87.0929 88.1666 88.631 87.5917 90.5536C89.125 91.1303 88.55 91.9955 88.4542 93.2452C89.3167 95.6484 89.0291 98.9168 88.1666 101.32C89.3167 105.069 93.4375 108.818 89.7958 112.279C90.6583 114.105 91.6166 114.874 89.9875 116.605C91.5208 119.585 87.975 121.411 89.9875 124.679C91.0416 126.794 83.2792 129.582 83.2792 126.506C83.375 124.103 83.4708 121.315 83.6625 119.2C83.95 118.912 85.0042 119.2 84.2375 118.335C83.5667 117.566 82.8 117.374 82.8 115.932L82.7042 116.028Z" fill="#E1E1E1"/>
<path d="M156.975 127.371C155.537 134.389 148.829 132.081 144.037 134.292C142.887 133.427 142.504 132.85 140.875 133.427C138.287 130.832 135.412 126.89 135.221 123.141C134.646 119.296 134.071 114.49 136.371 111.221C135.125 110.452 133.783 101.512 134.55 101.416C134.55 99.4937 131.483 96.7059 133.975 94.9756C135.029 91.2266 134.55 88.1504 133.879 84.3053C136.371 80.2678 140.012 72.7698 144.9 78.8259C146.625 78.3453 147.296 74.7885 148.446 78.6337C151.512 81.3253 150.937 75.942 155.058 82.2866C154.579 88.2466 153.333 85.4588 149.404 89.0156C146.433 93.2453 143.558 89.5924 143.079 96.9943C141.258 99.8782 145.954 101.705 148.35 101.32C149.883 100.263 150.841 100.263 151.416 102.281C151.8 102.858 152.854 103.339 152.375 104.108C151.416 104.492 150.841 105.454 150.65 106.607C149.212 110.452 144.421 109.972 145.187 114.586C143.846 116.508 142.6 117.662 144.421 119.873C143.271 126.602 150.362 123.045 153.237 121.796C153.621 124.199 156.304 124.968 156.975 127.179V127.371Z" fill="#E1E1E1"/>
</g>
<defs>
<clipPath id="clip0_4522_376">
<rect width="230" height="149" fill="white"/>
</clipPath>
</defs>
</svg>
