<svg width="240" height="49" viewBox="0 0 240 49" fill="none" xmlns="http://www.w3.org/2000/svg">
<g clip-path="url(#clip0_4522_542)">
<path d="M216.867 35.9781C217.667 33.5616 216 31.3465 213.933 30.0712C212.6 30.0712 210.867 30.0712 209.733 29.1315C208.867 27.9233 208.067 27.0507 207.733 25.5739C208.8 23.963 207.533 22.2178 209 20.6739C210.6 19.4657 212.133 18.9287 213.733 17.7876C214.333 17.3178 213.733 16.8479 213.933 16.2438C215.533 15.4383 214.8 13.626 216.4 12.6863C218.2 12.2164 217.333 11.6794 216.733 10.6726C217.6 9.19586 217.467 7.51778 218 5.8397C216.133 4.83285 215.8 2.01367 213.733 1.54381C212.733 -0.134276 209.933 -0.0671532 208.267 0.20134C206.8 1.20819 208.8 1.8123 207.333 2.95339C206.2 5.36983 207.933 4.89997 209.133 6.10819C211 6.51093 211.467 6.10819 212.333 8.12189C211.6 9.79997 212.933 12.2835 211.267 13.2904C211.267 14.2301 211.133 14.6328 210.133 14.3644C206.867 16.1767 210.4 11.1424 209.6 10.0685C207.867 7.71915 209.133 8.4575 209.467 7.04792C207.733 6.57805 204.867 4.6986 205 7.85339C204.267 7.85339 203.133 8.59175 203.4 9.39723C203.6 9.93422 204.667 10.4041 203.2 10.7397C202.8 10.2698 203.067 9.79997 202.267 9.93422C203.8 12.2164 202.133 11.5452 202.533 14.0959C202.933 16.6465 201.667 19.1972 203.2 21.6808C203.667 23.0233 202.867 23.0904 202.733 24.1644C202.667 24.9027 203.067 26.0438 202.2 26.5137C202.8 28.0575 201.333 28.9301 202.2 30.2726C201.267 31.0109 201.933 31.3465 202.4 32.2191C202.2 32.8233 201.333 33.2931 202 33.8972C202 34.9712 201.267 36.0452 201.6 37.1191C202.333 37.589 202.2 37.9246 202.2 38.7972C202.333 39.6027 203 39.8712 201.733 40.4082C201.733 41.415 202.667 42.4219 202.4 43.4959C200.4 45.2411 205 45.7109 202.667 46.9192C202.467 47.3219 201.267 48.5972 201.933 49C203 48.6644 204.667 49.1342 203.733 47.7246C206.4 44.3685 212.2 45.1739 215.733 43.563C215.8 42.5561 216.933 41.2808 216.733 40.1397C217.6 39.737 217.2 39.0657 217 38.3274C216.733 37.1191 220.533 34.5685 217 35.9781H216.867ZM212.8 39.0657C212.4 40.1397 205.467 41.8178 207.4 39.4013C206 34.5685 213.667 34.7027 212.8 39.0657ZM135.933 29.1315C135.667 31.0109 136.2 31.9507 135.533 33.6287C136.4 34.5685 135.667 35.4411 135.133 36.1794C136.4 37.3205 135.4 38.2602 134.333 39.1328C134 39.6027 133.667 41.1465 132.8 40.4753C132.267 39.2 133.333 37.589 132.333 36.1794C131.6 34.5013 132.8 32.6219 131.6 31.3465C133.2 30.6753 132.8 29.937 131.933 28.6616C132.333 27.5876 131.733 27.6548 131.333 26.5137C132.867 23.426 132.333 23.6274 129.867 21.3452C127.4 22.0164 130.467 23.2246 128.267 24.2986C128.333 26.5808 126.133 27.7219 125.4 29.7356C125.4 31.615 125.4 34.9712 122.667 34.5013C120.333 36.7164 120 30.0041 120.667 28.5945C119.333 27.5876 120.467 26.2452 118.933 25.4397C119.467 23.8287 117.933 22.4191 118.933 21.0767C118.4 19.5328 117.467 16.5123 115.467 16.3109C114.6 16.6465 114.8 17.3178 114.933 18.0561C117.067 18.6602 115.133 19.6671 114.933 20.6739C116 22.6876 113.733 24.1644 114.067 25.9767C113.733 27.3863 114.867 28.7287 115.4 30.0041C115.4 30.9438 115.267 31.7493 115.8 32.4876C113.933 33.226 114.8 34.837 114.667 36.4479C117.533 40.0726 108.6 43.026 109.533 38.1931C109.8 37.3205 110.267 36.7164 109.733 35.8438C110.4 34.9041 110.8 34.1657 109.533 33.763C110.067 32.2863 109.533 31.5479 109.933 30.2054C109.067 28.9972 108.667 28.1246 109.333 26.7822C107.867 21.6137 111.133 16.5123 109.733 11.6794C114.333 8.99449 109.867 4.96709 118.667 9.79997C120.4 11.8137 118.533 14.4986 121.4 15.0356C123 16.5123 121.8 18.9959 123 20.6068C124.2 21.2781 123 22.2178 123.533 22.7548C126.067 22.0835 125.533 18.3246 126.933 16.4452C126.6 15.1027 126.6 14.9013 128 14.4986C128.4 13.3575 128.8 11.4781 129.867 10.6726C131.733 9.26298 131.867 8.65887 133.8 10.1356C134.133 11.4109 132.8 11.4781 133.733 12.4178C134.267 14.3644 134.867 16.1096 134.067 17.7205C134.733 17.989 135 18.1233 134.4 18.8616C133.867 19.7342 133.267 18.8616 132.933 19.4657C133.467 20.2041 134.267 21.0096 134.467 21.8822C135.867 21.815 136.133 21.6137 135.733 23.3589C136.4 24.5 136 24.2315 135.533 25.3055C136.133 26.9164 137.2 27.5205 135.8 28.9972L135.933 29.1315ZM83.9333 19.063C84.0667 21.6808 83.2667 24.0301 82.9333 26.4465C83.8 27.9904 83.2667 28.1246 83.0667 29.7356C83.6667 30.8767 82.9333 32.3534 83.2667 33.8301C82.6667 35.9781 82.0667 38.663 81.2667 40.4753C80.2 43.2945 77.0667 42.2205 78.4667 39.6027C77.2667 38.8644 78.4667 37.052 77.6667 35.9109C74.6667 33.4945 73.4 27.9233 69.2667 27.4534C68.2 28.7287 68.4667 31.7493 69.2 33.226C68.3333 35.8438 67.4667 39.3342 64.1333 40.0726C63.7333 39.6698 63 39.5356 62.5333 39.2C62.8 37.1191 63.1333 34.837 63.6667 32.689C62.9333 30.2055 63.6667 28.3931 62.8667 25.9096C61.9333 24.5671 64 23.0904 63 21.4123C64.0667 19.1301 62.8 17.1835 63.6 14.8342C64.2 14.2972 64.5333 13.8945 64.5333 13.0219C64.8 12.6191 66.2 13.0219 66 12.2835C64.0667 10.8739 65.4 9.66572 66.4 11.7465C68.4 11.9479 68.9333 13.9616 70.2 14.9685C70.8667 15.8411 70.4 17.3178 71.7333 17.7876C73.6 17.7876 72.2667 17.8548 72.4 19.1972C73.2667 20.0698 74.1333 20.9424 75.2667 21.6137C76.2 22.9561 77 27.1178 79.0667 26.3123C77.5333 24.9027 79.7333 24.0972 79.2 22.4191C79.6667 21.6137 79.2 20.9424 78.9333 20.2712C79.7333 18.8616 79.5333 17.2507 79.4 15.7068C80.9333 15.9082 81 15.237 82.1333 14.2972C84.8667 14.5657 82.1333 17.8548 84.1333 19.1301L83.9333 19.063ZM239.667 33.763C241.067 31.615 237.667 31.615 237.733 29.4C235.933 29.3328 234.533 27.252 233.067 26.3123C231.8 26.5137 230.467 25.2383 231.4 24.0301C231.533 22.9561 232 22.7548 233 22.9561C232.333 20.9424 232.867 18.6602 233.067 16.6465C230.133 17.5863 229.533 12.6863 226.667 13.2904C226.4 11.8808 226.067 12.015 224.933 12.8205C224.333 12.3507 224.667 11.6794 223.733 11.5452C221.467 11.6794 220.267 13.4918 218.533 14.0959C220.133 14.163 218.867 15.1698 218.2 15.7068C216.667 20.6068 221.267 17.452 220.133 19.3315C217.333 19.063 220.133 22.5534 221.8 21.815C222.333 20.9424 223.4 19.9356 224.6 20.2041C225.467 20.8082 224.8 22.0835 225.4 23.0233C224.533 23.8959 225.2 25.3726 223.667 25.4397C224.533 25.9096 224.667 27.1849 223.667 27.5205C223.133 27.789 223.533 28.1246 224.067 27.8561C224.267 27.789 224.333 27.1849 224.8 27.5876C225.2 27.9233 224.667 28.2589 224.667 28.5945C225.2 29.4 224.667 29.8698 224.4 30.5411C225.467 31.615 224.267 33.4945 223.733 34.5013C224.933 35.9781 222.6 37.9246 224.667 38.9315C224.933 39.8041 226.467 42.2876 224.2 41.2137C225.867 42.4219 222.6 45.7109 226.467 43.8315C227.133 45.8452 228.467 43.6301 229.467 43.1602C230.133 43.4287 229.667 44.7712 230.533 44.637C231.4 44.1 232.667 42.4219 234 42.8918C234.667 41.5493 235.733 40.2739 237.133 39.8041C237.667 38.9315 238.267 38.8644 239 38.663C239.6 37.1863 239.6 35.3739 239.533 33.763H239.667ZM234.533 36.5822C233.267 36.5822 231.867 38.663 231 36.9178C229 38.3945 229.133 36.1794 229.733 34.5685C230.133 33.0918 231.6 34.3671 232.533 33.4274C233.333 35.1726 235.267 34.3671 234.467 36.6493L234.533 36.5822ZM183.6 34.3671C182.133 36.7164 182.867 36.1794 182.133 38.7972C181.133 39.8712 179.333 41.952 178.733 39.4013C177.867 36.8507 178.6 36.515 176.067 33.763C175.4 32.4876 176 31.3465 174.867 30.4068C175.067 29.6685 175.2 28.1918 173.933 28.1246C173.067 27.6548 174.067 27.0507 174.067 26.4465C173.933 25.3726 172.8 23.6274 171.867 22.9561C169.667 22.9561 169.8 24.1644 169.4 25.9096C170 27.1849 168.667 27.5876 169.067 28.7959C169.867 29.3328 170 30.0041 169.4 31.0109C170.267 34.4342 168.333 34.5013 168.2 37.1191C168 37.7233 166.4 39.0657 167.667 39.4013C166.867 41.0123 166.067 43.026 164.867 44.3013C162.8 44.5027 160.8 45.5767 158.8 45.1068C156.267 46.1808 154.533 43.8986 157.333 42.5561C158.6 40.1397 161.467 41.5493 162.6 39.4685C164.933 37.1191 163.8 33.1589 164.4 30.0712C165.933 28.7959 164.533 26.1109 165.933 25.4397C164.6 23.8287 166.8 23.8959 166.4 22.4863C166.933 21.0096 165.733 19.3315 167 18.1904C168.067 16.9822 167.4 16.0424 167.733 14.8342C170.067 12.7534 172.2 9.73285 175.533 10.4041C178.333 14.0287 177.533 18.9287 180.267 22.9561C179.067 25.1041 179.6 25.1041 181.333 24.5C179.4 26.1781 181.933 27.789 181.267 29.8698C181.133 31.2123 182 31.0109 182.4 31.7493C182.267 32.8904 182.733 33.3602 183.533 34.3L183.6 34.3671ZM41.6667 9.5986C42.5333 8.25613 40.6 7.98764 40.9333 6.57805C39.2 4.6986 36.2667 3.02052 33.8667 2.14792C32.5333 2.48353 33 4.36298 31.4667 4.6986C30.2667 6.84655 28.4667 5.50408 29.2667 7.04792C29.5333 9.19586 27.8667 9.46435 27.7333 11.2767C27.7333 14.0959 27.6 16.0424 27.2667 18.8616C26.8 21.4123 27.3333 24.2315 26.9333 26.8493C26.0667 27.789 26.7333 28.326 27.4 29.0644C26.3333 30.4068 27.8 31.9507 26.4667 33.0918C28.6667 34.9712 27.7333 34.9041 26.8667 37.4548C25.7333 39.4685 28.1333 40.9452 28.4 42.7575C28.4 43.2945 27 44.637 28.4 44.8383C34.6 45.9123 35.4667 39.737 39.0667 37.5219C41.4 34.3671 39.3333 35.5753 40 32.2863C39.3333 30.7424 35.7333 25.7082 33.9333 26.5137C33 25.7753 31.1333 24.7685 32.6667 23.4931C31.8667 21.9493 33.0667 18.9959 34.8667 18.9287C35.6667 17.5863 36.4667 17.7876 37.2667 18.3918C39.8 16.3109 43.5333 13.2233 41.8667 9.53148L41.6667 9.5986ZM33 32.152C35.4667 31.9507 35.2667 34.5685 36.6667 35.3068C37.2667 36.515 35.9333 38.1931 36.0667 39.3342C35.4 39.4013 34.5333 39.737 33.8667 39.8712C31.8 38.4616 29.2 39.6698 30.0667 35.9781C31.5333 34.6356 30.4667 30.8767 33 32.152ZM37.8 12.9548C37.2667 14.9685 34.4 15.7068 32.8667 16.6465C31.7333 14.8342 32.9333 11.3438 33.6667 9.53148C37.3333 6.91367 37.5333 10.0685 37.8 12.9548ZM155.8 29.937C156.067 26.9835 152.733 25.1712 150.867 27.252C148.667 27.4534 147.667 30.2726 145.733 30.8767C144.267 32.2863 147.867 34.0986 145.733 36.1123C145.8 37.7233 146.8 40.6096 144.267 39.6027C143.867 39.8041 143.6 41.0794 142.6 40.8109C141.733 39.6027 140.267 38.9986 139.8 37.7904C141.733 37.052 138.467 34.6356 140.267 31.0109C140.733 29.6013 138.867 28.863 140.067 27.5876C140.2 26.8493 140.4 23.0904 139.867 22.6205L140.667 22.352C140.467 21.1438 140.267 19.8685 139.667 18.7274C140.8 16.8479 140.867 18.0561 139.733 15.7739C141.467 14.9685 142.533 11.3438 144.933 12.6191C142.2 14.4315 145.733 13.9616 146.067 16.7808C145.8 19.3986 145.067 21.6808 146.333 24.2986C147 25.9096 145.4 24.5671 145.467 25.6411C148.133 26.3123 148.333 22.8219 150.667 22.0164C153.4 22.0835 153.533 18.6602 155.4 17.3178C155.133 16.3781 154.2 15.1027 155.333 13.8274C156.267 12.2164 157.333 11.6794 159.133 11.4781C159.267 12.1493 158.933 11.8808 158.667 12.1493C158.4 13.2233 158.733 14.0959 158.4 15.1698C159.267 15.5054 159 15.9753 158.867 16.7808C159.4 18.1904 159.2 20.0698 158.733 21.4794C159.4 23.6274 161.8 25.8424 159.667 27.8561C160.133 28.9301 160.733 29.3328 159.733 30.4068C160.6 32.152 158.6 33.1589 159.733 35.1054C160.333 36.3137 155.867 37.9918 155.867 36.1794C155.867 34.7698 156 33.1589 156.133 31.9507C156.333 31.8164 156.867 31.9507 156.467 31.4808C156.067 31.0109 155.6 30.9438 155.6 30.0712L155.8 29.937ZM23.5333 17.452C24.2 18.6602 23.3333 20.5397 22.4 21.4794C22.8 23.6274 20.9333 25.6411 21.8667 27.9233C22.4 30.1383 20.8667 32.5548 22.4667 34.3C21.0667 35.7767 21.7333 37.7904 20.8 39.4013C20.4 39.8712 16.9333 44.4356 16.8667 41.952C19 37.8575 16.0667 41.3479 17.6 36.2465C18.4 35.0383 17 33.0246 17.1333 31.6822C18.3333 29.8698 15.8 29.4 14.6 30.4068C11.8667 32.5548 6.53334 33.5616 6.00001 37.6561C4.86668 40.0054 2.20001 44.1 0.133342 40.6096C0.733342 39.6027 0.466676 37.2534 0.266676 36.0452C-0.266658 35.1726 0.133342 34.9041 0.800009 34.4342C-0.733324 32.2863 2.00001 29.6685 0.400009 27.5205C2.00001 26.5808 0.600009 25.8424 0.400009 24.2315C1.93334 22.5534 1.00001 19.6 0.400009 17.3849C1.40001 16.4452 1.13334 15.0356 2.00001 13.9616C3.66668 12.2164 5.53334 10.4712 6.20001 13.9616C6.80001 14.7 7.80001 15.7068 6.46668 16.1096C5.66668 16.9822 6.26668 17.7205 5.40001 18.526C5.33334 18.9959 6.40001 19.6 5.86668 20.2041C4.73334 20.5397 5.06668 21.0767 5.53334 21.9493C5.00001 24.2315 5.80001 26.9164 4.86668 29.0644C5.53334 32.0178 1.73334 36.515 6.33334 32.3534C8.80001 31.2794 10.3333 27.5876 12.8 26.4465C14.7333 26.7822 17.2667 25.7082 17.2667 23.4931C17.9333 22.8219 18 22.1507 17.6667 21.3452C18.2 18.7274 19.3333 16.5794 20.8 14.4986C22.0667 15.0356 24.4 15.5054 23.6667 17.3849L23.5333 17.452ZM60.4 34.7698C60.5333 35.9781 59.9333 37.7904 59.9333 38.9315C58.8 38.9986 58.1333 40.8781 56.9333 40.0054C55.4667 37.7233 53.4 35.8438 51.6667 33.6959C51.3333 32.4876 52.3333 30.2726 50.2 30.4739C47.3333 30.8096 46.6667 34.0986 46.5333 36.5822C48.6 37.5219 54.0667 36.9178 50.8667 41.1465C48 40.2068 46.8 39.5356 44 40.9452C42.8667 38.9315 45.4667 39.3342 42.4667 35.8438C43.4 33.9644 43.0667 32.3534 44.8 31.2794C45.2 29.4 45.6 27.8561 46.4667 25.8424C47.4 25.2383 47.6667 24.6342 47.0667 23.6274C47.9333 22.889 48.6667 22.2178 48.6 20.9424C47.6 20.0027 49.2667 18.4589 47.4 18.1904C47.3333 17.7205 47.4 17.3178 47.4 16.8479C46.4667 14.5657 45.6 12.0822 46.9333 8.79312C49.6 8.39038 51.2 6.91367 52.6667 10.2027C52.8 11.6123 51.8 11.8808 53.1333 12.6863C53.4 13.626 53.4 14.2301 54.4667 14.3644C55.2667 15.3712 53.2667 16.7137 54.2667 17.9219C56 18.8616 54.9333 21.0096 55.8667 22.6205C56.9333 23.963 56.1333 25.9096 56.2 27.3863C57.8 28.863 57.0667 31.4808 59.0667 32.6219C58.8667 33.763 59.8 34.1657 60.4 34.7698ZM100.667 29.4C99.2 29.2657 100.333 27.252 99.2 27.252C98.5333 27.5876 98 27.9233 97.4667 27.252C91.4 24.8356 95.5333 24.9698 92.7333 21.7479C92.4667 20.6068 93.4 20.8082 94 20.2041C94.4667 18.1904 95.3333 15.7739 93.9333 13.9616C94.1333 13.089 94.6 12.1493 93.6667 11.3438C94.2667 10.4041 93.8667 9.46435 93.5333 8.52463C93.6667 7.38353 93.0667 6.91367 92.2 6.30956C91.8 5.63833 91.8667 4.56435 90.9333 4.76572C90.2667 4.56435 90 3.62463 89.5333 3.15476C88.3333 2.41641 85.6667 2.28216 85.2667 3.75887C83.9333 5.5712 82.5333 6.77942 84.4 8.726C84.5333 9.53148 83.7333 9.66572 83.7333 10.2027C84.1333 11.3438 83.8667 12.6191 85.4667 12.6863C86.4 12.8205 88.1333 12.4849 87.9333 11.4109C89.4667 11.5452 90.8667 12.8205 91.1333 14.4986C89.8667 17.5191 91.1333 21.0767 89.6 24.0972C89.8 25.7082 90.2 27.1178 89.3333 28.5945C88.9333 29.8698 90.6667 31.0109 88.9333 31.4808C88.2 33.0246 90.0667 32.2191 88.9333 34.7027C91.0667 35.9781 89.2667 38.4616 89.8667 40.2739C89.2 43.2274 94.0667 40.2739 95.6667 40.5424C97.1333 41.952 97.0667 39.8712 99.0667 40.4082C100.067 40.0726 99.6667 39.1328 100.133 38.4616C101.067 37.6561 101.8 36.4479 100.8 35.3068C102.6 34.9712 100.6 30.8096 100.8 29.4H100.667ZM98.5333 35.1054C99.2667 37.1863 96.2 36.8507 95.0667 37.1863C94.5333 36.515 92.0667 36.7164 93.1333 36.0452C92.6667 33.226 93 35.6424 94.1333 32.9575C95.8667 32.3534 99.6667 32.152 98.4667 35.1054H98.5333ZM197.733 36.5822C196.867 40.6096 193 39.3342 190.267 40.6096C189.6 40.0726 189.4 39.737 188.467 40.1397C186.933 38.5959 185.333 36.3808 185.2 34.1657C184.867 31.9507 184.533 29.1315 185.867 27.252C185.133 26.7822 184.333 21.6137 184.8 21.5465C184.8 20.4726 183.067 18.7945 184.467 17.8548C185.067 15.7068 184.8 13.8945 184.4 11.6794C185.8 9.33011 187.933 4.96709 190.733 8.52463C191.733 8.18901 192.067 6.17531 192.8 8.39038C194.6 9.93422 194.2 6.84655 196.6 10.4712C196.333 13.8945 195.6 12.2835 193.333 14.4315C191.6 16.8479 189.933 14.7671 189.667 19.063C188.6 20.7411 191.333 21.7479 192.733 21.5465C193.6 20.9424 194.2 20.9424 194.467 22.1507C194.667 22.4863 195.333 22.7548 195.067 23.2246C194.533 23.4931 194.2 24.0301 194.067 24.6342C193.267 26.8493 190.467 26.6479 190.933 29.2657C190.133 30.4068 189.467 31.0781 190.467 32.3534C189.8 36.2465 193.867 34.2328 195.533 33.4945C195.733 34.837 197.267 35.3068 197.733 36.6493V36.5822Z" fill="white"/>
</g>
<defs>
<clipPath id="clip0_4522_542">
<rect width="240" height="49" fill="white"/>
</clipPath>
</defs>
</svg>
