<svg width="92" height="47" viewBox="0 0 92 47" fill="none" xmlns="http://www.w3.org/2000/svg">
<path d="M42.1763 36.8517H44.5721V27.8144H42.1763V36.8517ZM42.1763 26.4051H44.5721V24.2559H42.1763V26.4051Z" fill="#E7EBE9"/>
<path d="M46.116 39.8109H48.5118V35.8296H48.5471C49.058 36.6047 49.8859 37.1156 51.1543 37.1156C53.4797 37.1156 55.0652 35.2659 55.0652 32.3415C55.0652 29.5228 53.5326 27.5674 51.1367 27.5674C49.9036 27.5674 49.058 28.1487 48.4766 28.9414H48.4238V27.814H46.116V39.8109ZM50.6435 35.1249C49.2165 35.1249 48.459 34.0503 48.459 32.4119C48.459 30.7912 49.058 29.5052 50.5554 29.5052C52.0352 29.5052 52.6341 30.7031 52.6341 32.4119C52.6341 34.1208 51.859 35.1249 50.6435 35.1249Z" fill="#E7EBE9"/>
<path d="M59.8445 37.1156C62.0994 37.1156 63.6496 36.0233 63.6496 34.2088C63.6496 32.0948 61.9761 31.6721 60.4611 31.355C59.175 31.0907 57.9771 31.0202 57.9771 30.2451C57.9771 29.5933 58.5937 29.2409 59.5274 29.2409C60.5491 29.2409 61.1657 29.5933 61.2714 30.5622H63.4383C63.2621 28.7477 61.9409 27.5674 59.5626 27.5674C57.5015 27.5674 55.8807 28.5011 55.8807 30.4564C55.8807 32.4295 57.4663 32.87 59.087 33.1871C60.3201 33.4337 61.4652 33.5218 61.4652 34.385C61.4652 35.0192 60.8662 35.4244 59.8092 35.4244C58.7346 35.4244 57.9947 34.9664 57.8362 33.9269H55.6165C55.7574 35.8472 57.2196 37.1156 59.8445 37.1156Z" fill="#E7EBE9"/>
<path d="M72.7459 36.8517V27.8145H70.3501V33.0289C70.3501 34.2269 69.663 35.0725 68.5356 35.0725C67.5138 35.0725 67.0382 34.4911 67.0382 33.4341V27.8145H64.6599V33.8393C64.6599 35.8123 65.7874 37.0984 67.7957 37.0984C69.0641 37.0984 69.7687 36.6227 70.3854 35.7947H70.4382V36.8517H72.7459Z" fill="#E7EBE9"/>
<path d="M74.2957 36.8513H76.6916V31.6015C76.6916 30.4036 77.3434 29.6285 78.3123 29.6285C79.1931 29.6285 79.704 30.157 79.704 31.1788V36.8513H82.0999V31.6015C82.0999 30.4036 82.7165 29.6285 83.7206 29.6285C84.6014 29.6285 85.1123 30.157 85.1123 31.1788V36.8513H87.5082V30.7736C87.5082 28.8005 86.4335 27.5674 84.531 27.5674C83.3859 27.5674 82.4346 28.1663 81.818 29.1528H81.7828C81.3423 28.2016 80.4263 27.5674 79.2812 27.5674C78.0304 27.5674 77.1496 28.2016 76.6563 29.0296H76.6035V27.814H74.2957V36.8513Z" fill="#E7EBE9"/>
<path d="M42.2114 21.3722H44.6073V8.77637H42.2114V21.3722Z" fill="#E7EBE9"/>
<path d="M50.4657 21.6371C53.2667 21.6371 55.1869 19.5583 55.1869 16.863C55.1869 14.1676 53.2667 12.0889 50.4657 12.0889C47.6646 12.0889 45.7444 14.1676 45.7444 16.863C45.7444 19.5583 47.6646 21.6371 50.4657 21.6371ZM50.4657 19.8049C48.9859 19.8049 48.1756 18.6246 48.1756 16.863C48.1756 15.1013 48.9859 13.9034 50.4657 13.9034C51.9278 13.9034 52.7558 15.1013 52.7558 16.863C52.7558 18.6246 51.9278 19.8049 50.4657 19.8049Z" fill="#E7EBE9"/>
<path d="M60.2819 24.4558C61.6208 24.4558 62.7835 24.1387 63.541 23.4339C64.2104 22.8174 64.6156 21.9542 64.6156 20.6858V12.3355H62.3078V13.2868H62.2726C61.7265 12.5293 60.8985 12.0889 59.771 12.0889C57.4809 12.0889 55.8601 13.8153 55.8601 16.5106C55.8601 19.2412 57.8332 20.8267 59.8415 20.8267C60.9866 20.8267 61.6736 20.3687 62.2022 19.7697H62.255V20.7562C62.255 21.9894 61.6032 22.6412 60.2467 22.6412C59.1368 22.6412 58.626 22.2008 58.4322 21.6371H56.0539C56.3006 23.3987 57.8156 24.4558 60.2819 24.4558ZM60.2467 18.9065C59.0135 18.9065 58.2031 18.0081 58.2031 16.4754C58.2031 14.9604 59.0135 14.0091 60.2291 14.0091C61.6736 14.0091 62.3783 15.1365 62.3783 16.4578C62.3783 17.7966 61.7617 18.9065 60.2467 18.9065Z" fill="#E7EBE9"/>
<path d="M70.439 21.6371C73.24 21.6371 75.1603 19.5583 75.1603 16.863C75.1603 14.1676 73.24 12.0889 70.439 12.0889C67.638 12.0889 65.7178 14.1676 65.7178 16.863C65.7178 19.5583 67.638 21.6371 70.439 21.6371ZM70.439 19.8049C68.9592 19.8049 68.1489 18.6246 68.1489 16.863C68.1489 15.1013 68.9592 13.9034 70.439 13.9034C71.9012 13.9034 72.7292 15.1013 72.7292 16.863C72.7292 18.6246 71.9012 19.8049 70.439 19.8049Z" fill="#E7EBE9"/>
<path d="M77.2607 17.9195H87.6192V15.8584H77.2607V17.9195Z" fill="#E7EBE9"/>
<path d="M88.3787 26.279C88.3787 25.8736 88.7072 25.5449 89.1129 25.5449H90.5805C90.9862 25.5449 91.3148 25.8736 91.3148 26.279C91.3148 26.6843 90.9862 27.013 90.5805 27.013H89.1129C88.7072 27.013 88.3787 26.6843 88.3787 26.279Z" fill="#E7EBE9"/>
<path fill-rule="evenodd" clip-rule="evenodd" d="M17.9808 5.97656C27.659 5.97656 35.5046 13.8222 35.5046 23.5004C35.5046 33.1785 27.659 41.0242 17.9808 41.0242C8.30271 41.0242 0.457031 33.1785 0.457031 23.5004C0.457031 13.8222 8.30271 5.97656 17.9808 5.97656ZM17.3474 7.28786C15.3483 7.56921 13.4447 9.1756 11.967 11.8623C11.5384 12.6416 11.1516 13.5026 10.8146 14.4322C12.8238 13.9273 15.0311 13.6296 17.3474 13.5835V7.28786ZM9.33354 14.8531C9.75262 13.5377 10.2654 12.3275 10.8571 11.2518C11.5896 9.91994 12.4589 8.76981 13.4384 7.88646C8.11213 9.43334 3.9138 13.6317 2.36693 18.9579C3.25028 17.9784 4.40041 17.1091 5.73227 16.3766C6.80801 15.7849 8.01818 15.2722 9.33354 14.8531ZM8.91261 16.3341C8.40773 18.3434 8.11005 20.5506 8.06401 22.867H1.76832C2.04968 20.8678 3.65608 18.9642 6.34276 17.4866C7.12207 17.0579 7.98304 16.6712 8.91261 16.3341ZM9.33108 22.867C9.38339 20.3391 9.74727 17.9658 10.3494 15.8689C12.4463 15.2668 14.8196 14.9028 17.3474 14.8505V17.5868C16.4044 20.001 14.481 21.9243 12.0666 22.867H9.33108ZM8.06401 24.1338H1.76832C2.04968 26.133 3.65608 28.0365 6.34276 29.5142C7.12207 29.9428 7.98304 30.3296 8.91261 30.6666C8.40773 28.6574 8.11005 26.4502 8.06401 24.1338ZM10.3494 31.1318C9.74727 29.0349 9.38339 26.6617 9.33108 24.1338H12.0666C14.481 25.0765 16.4045 26.9997 17.3474 29.414V32.1502C14.8196 32.0979 12.4463 31.7339 10.3494 31.1318ZM9.33354 32.1477C8.01818 31.7286 6.80801 31.2158 5.73227 30.6242C4.40041 29.8917 3.25028 29.0223 2.36693 28.0428C3.9138 33.3691 8.11213 37.5674 13.4384 39.1143C12.4589 38.2309 11.5896 37.0808 10.8571 35.7489C10.2654 34.6732 9.75262 33.463 9.33354 32.1477ZM17.3474 39.7129C15.3483 39.4315 13.4447 37.8251 11.967 35.1385C11.5384 34.3592 11.1516 33.4981 10.8146 32.5686C12.8238 33.0735 15.0311 33.3712 17.3474 33.4172V39.7129ZM22.5233 39.1143C23.5028 38.2309 24.3721 37.0808 25.1047 35.7489C25.6963 34.6732 26.2091 33.463 26.6281 32.1477C27.9435 31.7286 29.1537 31.2158 30.2295 30.6242C31.5613 29.8917 32.7114 29.0223 33.5947 28.0428C32.0479 33.3691 27.8495 37.5674 22.5233 39.1143ZM25.1471 32.5686C24.81 33.4981 24.4233 34.3592 23.9947 35.1385C22.517 37.8251 20.6134 39.4315 18.6142 39.7129V33.4172C20.9306 33.3712 23.1378 33.0735 25.1471 32.5686ZM27.0491 30.6666C27.9786 30.3296 28.8396 29.9428 29.6189 29.5142C32.3056 28.0365 33.912 26.133 34.1933 24.1338H27.8976C27.8516 26.4502 27.5539 28.6574 27.0491 30.6666ZM26.6307 24.1338C26.5784 26.6617 26.2144 29.0349 25.6123 31.1318C23.5154 31.7339 21.1421 32.0979 18.6142 32.1502V29.416C19.5569 27.0008 21.4808 25.0767 23.8958 24.1338H26.6307ZM27.8976 22.867H34.1933C33.912 20.8678 32.3056 18.9642 29.6189 17.4866C28.8396 17.0579 27.9786 16.6712 27.0491 16.3341C27.5539 18.3434 27.8516 20.5506 27.8976 22.867ZM25.6123 15.8689C26.2144 17.9658 26.5784 20.3391 26.6307 22.867H23.8958C21.4808 21.924 19.5569 19.9999 18.6142 17.5848V14.8505C21.1421 14.9028 23.5154 15.2668 25.6123 15.8689ZM26.6281 14.8531C27.9435 15.2722 29.1537 15.7849 30.2295 16.3766C31.5613 17.1091 32.7114 17.9784 33.5947 18.9579C32.0479 13.6317 27.8495 9.43334 22.5233 7.88646C23.5028 8.76981 24.3721 9.91994 25.1047 11.2518C25.6963 12.3275 26.2091 13.5377 26.6281 14.8531ZM18.6142 7.28786C20.6134 7.56921 22.517 9.1756 23.9947 11.8623C24.4233 12.6416 24.81 13.5026 25.1471 14.4322C23.1378 13.9273 20.9306 13.6296 18.6142 13.5835V7.28786Z" fill="#E7EBE9"/>
</svg>
